<svg width="32" height="32" viewBox="0 0 32 32" fill="none" xmlns="http://www.w3.org/2000/svg">
<path fill-rule="evenodd" clip-rule="evenodd" d="M16.0315 1C18.8776 1 23.5211 13.4112 22.7722 20.9185C22.6721 21.9219 22.2787 21.6781 21.3918 21.1284C20.367 20.4933 18.6832 19.4498 16.0315 19.4498C13.4141 19.4498 11.7708 20.5091 10.7552 21.1638C9.85136 21.7464 9.44464 22.0086 9.29081 20.9185C8.24222 13.4873 13.1854 1 16.0315 1ZM16.0698 31C19.6442 31 22.5419 28.8182 22.5419 26.1269C22.5419 23.4356 19.6442 21.2538 16.0698 21.2538C12.4954 21.2538 9.59773 23.4356 9.59773 26.1269C9.59773 28.8182 12.4954 31 16.0698 31Z" fill="url(#paint0_linear_480_1745)"/>
<defs>
<linearGradient id="paint0_linear_480_1745" x1="16.114" y1="1" x2="16.114" y2="30.5432" gradientUnits="userSpaceOnUse">
<stop stop-color="#EC008C"/>
<stop offset="1" stop-color="#80B3FF"/>
</linearGradient>
</defs>
</svg>
