<svg width="21" height="26" viewBox="0 0 21 26" fill="none" xmlns="http://www.w3.org/2000/svg">
<path d="M5.20596 25.5022C4.69619 25.1613 4.24438 24.7401 3.86791 24.2548C3.4538 23.7538 3.07011 23.2282 2.71893 22.6809C1.89483 21.4674 1.24855 20.1412 0.799923 18.7429C0.260985 17.1187 0 15.5618 0 14.0391C0 12.3385 0.366026 10.854 1.08192 9.60656C1.6126 8.63156 2.39283 7.81679 3.3419 7.24654C4.26166 6.67235 5.31847 6.35812 6.401 6.33697C6.77995 6.33697 7.18799 6.39219 7.62108 6.49777C7.93217 6.58629 8.31112 6.72597 8.77411 6.89977C9.36314 7.12797 9.68715 7.26766 9.79704 7.30176C10.1421 7.42846 10.4321 7.48368 10.66 7.48368C10.8329 7.48368 11.0769 7.42846 11.3541 7.344C11.51 7.28877 11.8041 7.19132 12.2251 7.01021C12.642 6.85754 12.9701 6.72678 13.231 6.62933C13.631 6.51076 14.018 6.40112 14.3631 6.3459C14.7721 6.28109 15.1872 6.26392 15.6001 6.29474C16.3157 6.34175 17.0205 6.49416 17.692 6.74709C18.7901 7.19132 19.6781 7.88487 20.3391 8.87078C20.0597 9.04384 19.7975 9.24345 19.5561 9.46688C19.0306 9.93513 18.583 10.4848 18.2302 11.0952C17.769 11.9293 17.53 12.8689 17.5361 13.8231C17.5531 14.995 17.852 16.0272 18.4411 16.9197C18.8741 17.5812 19.4369 18.1468 20.095 18.5821C20.432 18.8103 20.722 18.967 21 19.0726C20.8699 19.4787 20.7309 19.8717 20.5669 20.2616C20.1949 21.1357 19.744 21.9738 19.22 22.7653C18.7529 23.4467 18.3869 23.9543 18.109 24.2921C17.6759 24.8078 17.2589 25.2017 16.838 25.4762C16.375 25.7848 15.828 25.9496 15.2721 25.9496C14.8956 25.9642 14.5192 25.9184 14.157 25.814C13.8459 25.7084 13.5381 25.5939 13.2351 25.4632C12.9201 25.3178 12.5953 25.1948 12.2631 25.0953C11.4419 24.8833 10.5809 24.8819 9.75906 25.0912C9.42212 25.1887 9.09811 25.3024 8.77814 25.4421C8.32809 25.6321 8.02913 25.7596 7.85621 25.814C7.5112 25.9155 7.15325 25.9789 6.79127 26C6.23132 26 5.70935 25.8392 5.19223 25.5135L5.20596 25.5022ZM12.5911 5.51185C11.8591 5.87974 11.1601 6.03648 10.4661 5.98532C10.357 5.28284 10.4661 4.56411 10.7561 3.77717C11.0031 3.11047 11.368 2.49417 11.8332 1.95802C12.3245 1.39361 12.9206 0.930994 13.5882 0.596096C14.2992 0.228205 14.9771 0.0292363 15.6252 0C15.7092 0.73578 15.6252 1.45938 15.3561 2.24145C15.1071 2.93279 14.7429 3.57652 14.279 4.14506C13.8056 4.71023 13.2246 5.17465 12.5701 5.51104L12.5911 5.51185Z" fill="black"/>
</svg>
