<svg width="42" height="18" viewBox="0 0 42 18" fill="none" xmlns="http://www.w3.org/2000/svg">
<g clip-path="url(#clip0_392_1315)">
<path fill-rule="evenodd" clip-rule="evenodd" d="M26.9177 14.0105C26.1668 14.2201 25.1889 14.3074 24.3507 14.3074C22.168 14.3074 20.7361 13.1723 20.7361 11.0943C20.7361 9.12106 22.0807 7.84632 24.0364 7.84632C24.473 7.84632 24.9445 7.89871 25.2239 8.03841V5.17456H26.9177V14.0105ZM25.2239 9.50524C24.9619 9.383 24.5952 9.31315 24.1761 9.31315C23.1459 9.31315 22.4648 9.9418 22.4648 11.0419C22.4648 12.2119 23.1983 12.8755 24.4031 12.8755C24.6127 12.8755 24.9445 12.8755 25.2239 12.8056V9.50524ZM40.8353 14.0105C40.0844 14.2201 39.1065 14.3074 38.2509 14.3074C36.0855 14.3074 34.6361 13.1723 34.6361 11.0943C34.6361 9.12106 35.9808 7.84632 37.9366 7.84632C38.3906 7.84632 38.8446 7.89871 39.124 8.03841V5.17456H40.8353V14.0105ZM39.124 9.50524C38.8621 9.383 38.5128 9.31315 38.0937 9.31315C37.046 9.31315 36.3649 9.9418 36.3649 11.0419C36.3649 12.2119 37.1158 12.8755 38.3207 12.8755C38.5303 12.8755 38.8446 12.8755 39.124 12.8056V9.50524ZM29.5895 9.50524C29.8689 9.383 30.2705 9.34807 30.6023 9.34807C31.6501 9.34807 32.366 9.9418 32.366 11.007C32.366 12.2643 31.5627 12.8406 30.4975 12.858V14.3074H30.5848C32.7851 14.3074 34.0948 13.1025 34.0948 10.9546C34.0948 8.99883 32.6978 7.84632 30.6372 7.84632C29.5895 7.84632 28.5592 8.0908 27.8782 8.37017V16.6648H29.5895V9.50524Z" fill="#3F3F42"/>
<path fill-rule="evenodd" clip-rule="evenodd" d="M14.4846 3.81256L14.764 4.12689L14.9212 4.03957L14.4846 3.81256Z" fill="#DC0032"/>
<path fill-rule="evenodd" clip-rule="evenodd" d="M14.0654 3.58551L14.6067 4.21416L14.7988 4.10939L14.5893 3.86491L14.0654 3.58551Z" fill="#DC0032"/>
<path fill-rule="evenodd" clip-rule="evenodd" d="M13.6289 3.35852L14.4496 4.3015L14.6417 4.19672L14.1702 3.63792L13.6289 3.35852Z" fill="#DC0032"/>
<path fill-rule="evenodd" clip-rule="evenodd" d="M13.21 3.13153L14.2926 4.38883L14.4847 4.28406L13.7338 3.41093L13.21 3.13153ZM15.288 5.34925L15.1657 5.4191L15.288 5.5588V5.34925Z" fill="#DC0032"/>
<path fill-rule="evenodd" clip-rule="evenodd" d="M12.7908 2.90448L14.1354 4.47611L14.3275 4.37133L13.3146 3.18388L12.7908 2.90448ZM15.218 5.38413L15.0259 5.50637L15.2879 5.82069V5.48891L15.218 5.38413Z" fill="#DC0032"/>
<path fill-rule="evenodd" clip-rule="evenodd" d="M12.3542 2.67749L13.9783 4.56344L14.1878 4.45867L12.8956 2.95689L12.3542 2.67749ZM15.0609 5.47147L14.8688 5.5937L15.2879 6.08265V5.75087L15.0609 5.47147Z" fill="#DC0032"/>
<path fill-rule="evenodd" clip-rule="evenodd" d="M11.9351 2.4505L13.8385 4.65077L14.0306 4.54599L12.4589 2.72989L11.9351 2.4505ZM14.9037 5.57626L14.7116 5.68103L15.2878 6.36207V6.03028L14.9037 5.57626Z" fill="#DC0032"/>
<path fill-rule="evenodd" clip-rule="evenodd" d="M11.5159 2.22345L13.6812 4.73804L13.8733 4.63327L12.0397 2.50285L11.5159 2.22345ZM14.7464 5.66353L14.5543 5.7683L15.2877 6.62397V6.29218L14.7464 5.66353Z" fill="#DC0032"/>
<path fill-rule="evenodd" clip-rule="evenodd" d="M11.0793 1.99646L13.5241 4.82537L13.7162 4.7206L11.6207 2.27586L11.0793 1.99646ZM14.5893 5.75086L14.3972 5.85564L15.2878 6.88593V6.55414L14.5893 5.75086Z" fill="#DC0032"/>
<path fill-rule="evenodd" clip-rule="evenodd" d="M10.6604 1.76941L13.3671 4.93011L13.5592 4.80787L11.1843 2.04881L10.6604 1.76941ZM14.4323 5.83814L14.2402 5.94291L15.2879 7.16529V6.8335L14.4323 5.83814Z" fill="#DC0032"/>
<path fill-rule="evenodd" clip-rule="evenodd" d="M10.2239 1.54242L13.2099 5.01744L13.402 4.89521L10.7652 1.82182L10.2239 1.54242ZM14.2926 5.92547L14.0831 6.03025L15.288 7.42724V7.09546L14.2926 5.92547Z" fill="#DC0032"/>
<path fill-rule="evenodd" clip-rule="evenodd" d="M9.80469 1.31543L13.0527 5.10475L13.2622 4.98254L10.346 1.59483L9.80469 1.31543ZM14.1354 6.0128L13.9433 6.11758L15.2879 7.70667V7.35742L14.1354 6.0128Z" fill="#DC0032"/>
<path fill-rule="evenodd" clip-rule="evenodd" d="M9.3855 1.08838L12.9129 5.19202L13.105 5.06979L9.90937 1.36778L9.3855 1.08838ZM13.9781 6.10007L13.786 6.20485L15.2878 7.96856V7.63678L13.9781 6.10007Z" fill="#DC0032"/>
<path fill-rule="evenodd" clip-rule="evenodd" d="M8.94897 0.843933L12.7558 5.27937L12.9479 5.15713L9.49031 1.14079L8.94897 0.843933ZM13.821 6.18742L13.6289 6.29219L15.2878 8.23051V7.89874L13.821 6.18742Z" fill="#DC0032"/>
<path fill-rule="evenodd" clip-rule="evenodd" d="M8.53003 0.616943L12.5988 5.3667L12.7909 5.26192L9.07137 0.913804L8.53003 0.616943ZM13.664 6.27475L13.4719 6.37952L15.288 8.50993V8.1607L13.664 6.27475Z" fill="#DC0032"/>
<path fill-rule="evenodd" clip-rule="evenodd" d="M8.11084 0.407349L12.4415 5.45396L12.6336 5.34919L8.63469 0.686747L8.11084 0.407349ZM13.5067 6.36201L13.3146 6.46679L15.2879 8.77182V8.44003L13.5067 6.36201Z" fill="#DC0032"/>
<path fill-rule="evenodd" clip-rule="evenodd" d="M7.83154 0.337524L12.2844 5.5413L12.4765 5.43653L8.21572 0.459761L8.11094 0.407374C8.02363 0.354987 7.93632 0.337524 7.83154 0.337524ZM13.3496 6.44935L13.1576 6.55413L15.288 9.03378V8.70199L13.3496 6.44935Z" fill="#DC0032"/>
<path fill-rule="evenodd" clip-rule="evenodd" d="M7.83138 0.337524C7.76153 0.337524 7.69168 0.354987 7.62183 0.372449L12.1271 5.62862L12.3367 5.52384L7.88376 0.337524C7.8663 0.337524 7.84884 0.337524 7.83138 0.337524ZM13.2098 6.53667L13.0177 6.64144L15.2878 9.31318V8.96393L13.2098 6.53667Z" fill="#DC0032"/>
<path fill-rule="evenodd" clip-rule="evenodd" d="M7.67439 0.35498C7.63947 0.372443 7.58708 0.389905 7.56962 0.407368L7.46484 0.459755L11.9876 5.71592L12.1797 5.61115L7.67439 0.35498ZM13.0528 6.62397L12.8607 6.74621L15.288 9.57511V9.24332L13.0528 6.62397Z" fill="#DC0032"/>
<path fill-rule="evenodd" clip-rule="evenodd" d="M7.49971 0.424866L7.30762 0.52964L11.8304 5.80327L12.0224 5.6985L7.49971 0.424866ZM12.8956 6.71132L12.7035 6.83356L15.2879 9.83708V9.5053L12.8956 6.71132Z" fill="#DC0032"/>
<path fill-rule="evenodd" clip-rule="evenodd" d="M7.34248 0.512146L7.15039 0.61692L11.6731 5.89055L11.8652 5.78578L7.34248 0.512146ZM12.7383 6.7986L12.5463 6.92084L15.2878 10.1165V9.78467L12.7383 6.7986Z" fill="#DC0032"/>
<path fill-rule="evenodd" clip-rule="evenodd" d="M7.18525 0.599487L6.99316 0.704262L11.5159 5.97789L11.708 5.87312L7.18525 0.599487ZM12.5811 6.88594L12.389 7.00818L15.2878 10.3784V10.0466L12.5811 6.88594Z" fill="#DC0032"/>
<path fill-rule="evenodd" clip-rule="evenodd" d="M7.02827 0.686768L6.83618 0.791543L11.3589 6.06517L11.551 5.9604L7.02827 0.686768ZM12.4241 6.97322L12.232 7.09546L15.288 10.6403V10.3085L12.4241 6.97322Z" fill="#DC0032"/>
<path fill-rule="evenodd" clip-rule="evenodd" d="M6.87104 0.774109L6.67896 0.878882L11.2017 6.15251L11.3938 6.04774L6.87104 0.774109ZM12.2844 7.06056L12.0923 7.1828L15.2879 10.9198V10.588L12.2844 7.06056Z" fill="#DC0032"/>
<path fill-rule="evenodd" clip-rule="evenodd" d="M6.71382 0.843933L6.52173 0.966171L11.062 6.2398L11.254 6.13503L6.71382 0.843933ZM12.1271 7.16532L11.9351 7.27009L15.2878 11.1817V10.8499L12.1271 7.16532Z" fill="#DC0032"/>
<path fill-rule="evenodd" clip-rule="evenodd" d="M6.55659 0.931274L6.3645 1.03605L10.9047 6.32714L11.0968 6.22237L6.55659 0.931274ZM11.9699 7.25266L11.7778 7.35743L15.2878 11.4611V11.1118L11.9699 7.25266Z" fill="#DC0032"/>
<path fill-rule="evenodd" clip-rule="evenodd" d="M6.39961 1.01855L6.20752 1.12333L10.7477 6.43189L10.9398 6.30965L6.39961 1.01855ZM11.8129 7.33994L11.6208 7.44471L15.288 11.723V11.3912L11.8129 7.33994Z" fill="#DC0032"/>
<path fill-rule="evenodd" clip-rule="evenodd" d="M6.24238 1.1059L6.05029 1.21067L10.5905 6.51923L10.7826 6.39699L6.24238 1.1059ZM11.6557 7.42728L11.4636 7.53205L15.2879 11.9849V11.6532L11.6557 7.42728Z" fill="#DC0032"/>
<path fill-rule="evenodd" clip-rule="evenodd" d="M6.08515 1.19318L5.89307 1.29795L10.4333 6.60651L10.6254 6.48427L6.08515 1.19318ZM11.4985 7.51456L11.3064 7.61934L15.2878 12.2643V11.9151L11.4985 7.51456Z" fill="#DC0032"/>
<path fill-rule="evenodd" clip-rule="evenodd" d="M5.92793 1.28052L5.73584 1.38529L10.2761 6.69385L10.4682 6.57162L5.92793 1.28052ZM11.3587 7.6019L11.1667 7.70668L15.2878 12.5263V12.1945L11.3587 7.6019Z" fill="#DC0032"/>
<path fill-rule="evenodd" clip-rule="evenodd" d="M5.77083 1.35034L5.56128 1.45511L10.1364 6.78114L10.3285 6.6589L5.77083 1.35034ZM11.2016 7.68919L11.0096 7.79397L15.2878 12.7882V12.4564L11.2016 7.68919Z" fill="#DC0032"/>
<path fill-rule="evenodd" clip-rule="evenodd" d="M5.6136 1.43768L5.40405 1.54246L9.99667 6.88594C10.0141 6.85102 10.0316 6.83356 10.0665 6.81609L10.1713 6.74624L5.6136 1.43768ZM11.0444 7.77653L10.8523 7.88131L15.2528 13.0152C15.2703 12.9628 15.2878 12.9105 15.2878 12.8581V12.7184L11.0444 7.77653Z" fill="#DC0032"/>
<path fill-rule="evenodd" clip-rule="evenodd" d="M5.45662 1.52496L5.24707 1.62974L9.94446 7.09546V7.02561C9.94446 6.97323 9.97938 6.90338 10.0143 6.85099L5.45662 1.52496ZM10.8874 7.86381L10.7477 7.95113C10.7303 7.95113 10.7128 7.96859 10.6953 7.96859L15.1657 13.1898C15.2181 13.12 15.253 13.0501 15.2705 12.9803L10.8874 7.86381Z" fill="#DC0032"/>
<path fill-rule="evenodd" clip-rule="evenodd" d="M5.29937 1.6123L5.08984 1.71708L9.94437 7.37489V7.02564L5.29937 1.6123ZM10.3984 7.88131L15.0434 13.3121C15.0958 13.2772 15.1482 13.2073 15.2005 13.1549L10.7302 7.95116C10.6603 7.98608 10.5556 7.98608 10.4857 7.95116L10.3984 7.88131Z" fill="#DC0032"/>
<path fill-rule="evenodd" clip-rule="evenodd" d="M5.14214 1.69958L4.93262 1.80436L14.8861 13.3994L15.0258 13.3295C15.0433 13.3121 15.0608 13.2946 15.0782 13.2771L10.5031 7.95112H10.4856L10.084 7.70665C10.0491 7.68919 10.0316 7.65426 9.9967 7.61934C9.96177 7.56695 9.96177 7.53202 9.94431 7.4971V7.30501L5.14214 1.69958Z" fill="#DC0032"/>
<path fill-rule="evenodd" clip-rule="evenodd" d="M4.98518 1.78693L4.77563 1.8917L14.7292 13.4867L14.9213 13.3819L4.98518 1.78693Z" fill="#DC0032"/>
<path fill-rule="evenodd" clip-rule="evenodd" d="M4.82796 1.85675L4.61841 1.96153L14.5894 13.574L14.7815 13.4692L4.82796 1.85675Z" fill="#DC0032"/>
<path fill-rule="evenodd" clip-rule="evenodd" d="M4.67073 1.94409L4.46118 2.04887L14.4322 13.6614L14.6243 13.5566L4.67073 1.94409Z" fill="#DC0032"/>
<path fill-rule="evenodd" clip-rule="evenodd" d="M4.51351 2.03137L4.30396 2.13614L14.275 13.7486L14.4671 13.6439L4.51351 2.03137Z" fill="#DC0032"/>
<path fill-rule="evenodd" clip-rule="evenodd" d="M4.33906 2.11871L4.14697 2.22349L14.118 13.8534L14.3101 13.7312L4.33906 2.11871Z" fill="#DC0032"/>
<path fill-rule="evenodd" clip-rule="evenodd" d="M4.18183 2.20599L3.98975 2.31077L13.9608 13.9407L14.1529 13.8185L4.18183 2.20599Z" fill="#DC0032"/>
<path fill-rule="evenodd" clip-rule="evenodd" d="M4.02461 2.29333L3.83252 2.39811L13.821 14.0281L14.0131 13.9058L4.02461 2.29333Z" fill="#DC0032"/>
<path fill-rule="evenodd" clip-rule="evenodd" d="M3.86738 2.36316L3.67529 2.46793L13.6638 14.1153L13.8559 13.9931L3.86738 2.36316Z" fill="#DC0032"/>
<path fill-rule="evenodd" clip-rule="evenodd" d="M3.7104 2.4505L3.51831 2.55528L13.5068 14.2027L13.6989 14.0979L3.7104 2.4505Z" fill="#DC0032"/>
<path fill-rule="evenodd" clip-rule="evenodd" d="M3.55317 2.53778L3.36108 2.64256L8.21564 8.30035L8.37278 8.40513C8.44263 8.44005 8.51248 8.52736 8.51248 8.61468V8.63214L13.3496 14.29L13.5417 14.1852L3.55317 2.53778Z" fill="#DC0032"/>
<path fill-rule="evenodd" clip-rule="evenodd" d="M3.39594 2.62512L3.20386 2.72989L7.76155 8.05593L8.33779 8.37023L3.39594 2.62512ZM8.49495 8.56232C8.49495 8.57978 8.51241 8.59724 8.51241 8.61471V8.91157L13.1923 14.3773L13.3844 14.2725L8.49495 8.56232Z" fill="#DC0032"/>
<path fill-rule="evenodd" clip-rule="evenodd" d="M3.23872 2.7124L3.04663 2.81718L7.30746 7.79397L7.88372 8.10829L3.23872 2.7124ZM8.51235 8.84169V9.17348L13.0526 14.4646L13.2447 14.3598L8.51235 8.84169Z" fill="#DC0032"/>
<path fill-rule="evenodd" clip-rule="evenodd" d="M3.08174 2.79974L2.88965 2.90452L6.87107 7.53206L7.42987 7.84638L3.08174 2.79974ZM8.51253 9.10366V9.45291L12.8956 14.5519L13.0877 14.4472L8.51253 9.10366Z" fill="#DC0032"/>
<path fill-rule="evenodd" clip-rule="evenodd" d="M2.92451 2.86957L2.73242 2.97434L6.41699 7.2701L6.97579 7.60188L2.92451 2.86957ZM8.51246 9.38303V9.71482L12.7384 14.6392L12.9305 14.5344L8.51246 9.38303Z" fill="#DC0032"/>
<path fill-rule="evenodd" clip-rule="evenodd" d="M2.76728 2.95685L2.5752 3.06162L5.96289 7.00813L6.52169 7.33991L2.76728 2.95685ZM8.51239 9.64494V9.97673L12.5811 14.7265L12.7732 14.6217L8.51239 9.64494Z" fill="#DC0032"/>
<path fill-rule="evenodd" clip-rule="evenodd" d="M2.6103 3.04419L2.41821 3.14896L5.50904 6.76368L6.06784 7.078L2.6103 3.04419ZM8.51257 9.90691V10.2562L12.4241 14.8313L12.6162 14.709L8.51257 9.90691Z" fill="#DC0032"/>
<path fill-rule="evenodd" clip-rule="evenodd" d="M2.45307 3.13153L2.26099 3.23631L5.05498 6.50177L5.61375 6.81609L2.45307 3.13153ZM8.51251 10.1863V10.5181L12.2844 14.9186L12.4765 14.7964L8.51251 10.1863Z" fill="#DC0032"/>
<path fill-rule="evenodd" clip-rule="evenodd" d="M2.29584 3.21881L2.10376 3.32359L4.60089 6.2398L5.17713 6.55413L2.29584 3.21881ZM8.51244 10.4482V10.78L12.1272 15.0059L12.3192 14.8837L8.51244 10.4482Z" fill="#DC0032"/>
<path fill-rule="evenodd" clip-rule="evenodd" d="M2.13862 3.30615L1.94653 3.41093L4.1468 5.97789L4.72306 6.30968L2.13862 3.30615ZM6.71376 8.96396L7.16779 9.48783V9.29574C7.16779 9.26082 7.13286 9.20843 7.09793 9.19097L6.71376 8.96396ZM8.51237 10.7102V11.0595L11.9699 15.0932L12.162 14.971L8.51237 10.7102Z" fill="#DB0032"/>
<path fill-rule="evenodd" clip-rule="evenodd" d="M1.98164 3.37598L1.78955 3.48075L3.69295 5.71593L4.26921 6.04772L1.98164 3.37598ZM6.25991 8.70199L7.16796 9.74974V9.41795L6.83618 9.03378L6.25991 8.70199ZM8.51255 10.9896V11.3214L11.8129 15.1805L12.005 15.0758L8.51255 10.9896Z" fill="#DC0032"/>
<path fill-rule="evenodd" clip-rule="evenodd" d="M1.82441 3.46332L1.63232 3.56809L3.25632 5.47148L3.81512 5.78581L1.82441 3.46332ZM5.80582 8.45755L7.1679 10.0292V9.69738L6.38209 8.77187L5.80582 8.45755ZM8.51249 11.2515V11.5833L11.6557 15.2679L11.8478 15.1631L8.51249 11.2515Z" fill="#DC0032"/>
<path fill-rule="evenodd" clip-rule="evenodd" d="M1.66718 3.5506L1.4751 3.65537L2.80223 5.20951L3.36103 5.52384L1.66718 3.5506ZM5.3692 8.1956L7.16783 10.2911V9.95929L5.928 8.5099L5.3692 8.1956ZM8.51242 11.5309V11.8627L11.5159 15.3552L11.708 15.2504L8.51242 11.5309Z" fill="#DC0032"/>
<path fill-rule="evenodd" clip-rule="evenodd" d="M1.50996 3.63794L1.31787 3.74271L2.34815 4.94763L2.90694 5.26193L1.50996 3.63794ZM4.91513 7.93369L7.16777 10.553V10.2213L5.47391 8.26546L4.91513 7.93369ZM8.51236 11.7929V12.1246L11.3587 15.4425L11.5508 15.3377L8.51236 11.7929Z" fill="#DC0032"/>
<path fill-rule="evenodd" clip-rule="evenodd" d="M1.35297 3.72522L1.16089 3.82999L1.89431 4.68566L2.4531 5.01744L1.35297 3.72522ZM4.46128 7.67172L7.16795 10.8324V10.5006L5.02008 8.00351L4.46128 7.67172ZM8.51254 12.0548V12.3865L11.2018 15.5298L11.3938 15.425L8.51254 12.0548Z" fill="#DC0032"/>
<path fill-rule="evenodd" clip-rule="evenodd" d="M1.19575 3.81256L1.00366 3.91734L1.44022 4.42375L2.01648 4.75554L1.19575 3.81256ZM4.00719 7.42727L7.16788 11.0944V10.7626L4.56599 7.7416L4.00719 7.42727ZM8.51247 12.3342V12.666L11.0445 15.6171L11.2366 15.5123L8.51247 12.3342Z" fill="#DC0032"/>
<path fill-rule="evenodd" clip-rule="evenodd" d="M1.03865 3.88239L0.829102 3.98716L0.986262 4.17925L1.56252 4.49357L1.03865 3.88239ZM3.55323 7.16531L7.16794 11.3737V11.0245L4.12949 7.47964L3.55323 7.16531ZM8.51253 12.5961V12.9279L10.8874 15.7219L11.0795 15.5996L8.51253 12.5961Z" fill="#DC0032"/>
<path fill-rule="evenodd" clip-rule="evenodd" d="M0.881513 3.96973L0.759277 4.03958L1.10853 4.23166L0.881513 3.96973ZM3.09923 6.9034L7.16797 11.6357V11.3039L3.67549 7.23519L3.09923 6.9034ZM8.51256 12.8581V13.2073L10.7478 15.8092L10.9398 15.687L8.51256 12.8581Z" fill="#DC0032"/>
<path fill-rule="evenodd" clip-rule="evenodd" d="M2.6626 6.64142L7.16789 11.8976V11.5658L3.22139 6.97321L2.6626 6.64142ZM8.51248 13.1374V13.4692L10.5905 15.8965L10.7826 15.7742L8.51248 13.1374Z" fill="#DC0032"/>
<path fill-rule="evenodd" clip-rule="evenodd" d="M2.2085 6.39697L7.16781 12.177V11.8278L2.76729 6.7113L2.2085 6.39697ZM8.5124 13.3994V13.7312L10.4333 15.9838L10.6254 15.8616L8.5124 13.3994Z" fill="#DC0032"/>
<path fill-rule="evenodd" clip-rule="evenodd" d="M1.75464 6.13501L7.16798 12.4389V12.1071L2.31343 6.44933L1.75464 6.13501ZM8.51257 13.6613V14.0106L10.2763 16.0711L10.4684 15.9663L8.51257 13.6613Z" fill="#DC0032"/>
<path fill-rule="evenodd" clip-rule="evenodd" d="M1.30054 5.87311L7.1679 12.7009V12.3691L1.85933 6.2049L1.30054 5.87311ZM8.51249 13.9407V14.2725L10.119 16.1585L10.3111 16.0537L8.51249 13.9407Z" fill="#DB0032"/>
<path fill-rule="evenodd" clip-rule="evenodd" d="M0.846436 5.61115L7.16782 12.9803V12.6485L1.40523 5.94293L0.846436 5.61115ZM8.51241 14.2026V14.5344L9.97925 16.2457L10.1713 16.141L8.51241 14.2026Z" fill="#DA0032"/>
<path fill-rule="evenodd" clip-rule="evenodd" d="M0.392578 5.3667L7.16798 13.2422V12.9105L0.968836 5.68102L0.392578 5.3667ZM8.51257 14.4646V14.8138L9.82226 16.3331L10.0143 16.2283L8.51257 14.4646Z" fill="#D90032"/>
<path fill-rule="evenodd" clip-rule="evenodd" d="M0.375 5.34924V5.59372L7.16787 13.5042V13.1724L0.514699 5.41909L0.375 5.34924ZM8.51246 14.744V14.9535C8.51246 14.9885 8.49499 15.0234 8.47753 15.0409L9.66498 16.4204L9.85707 16.3156L8.51246 14.744Z" fill="#D80032"/>
<path fill-rule="evenodd" clip-rule="evenodd" d="M0.375 5.52386V5.87311L7.16787 13.7836V13.4518L0.375 5.52386ZM8.49499 15.0059C8.47753 15.0758 8.42514 15.1456 8.37276 15.1631L8.35529 15.1806L9.50782 16.5077L9.69991 16.4029L8.49499 15.0059Z" fill="#D70032"/>
<path fill-rule="evenodd" clip-rule="evenodd" d="M0.375 5.80322V6.13501L7.16787 14.0455V13.7137L0.375 5.80322ZM8.39022 15.1456C8.39022 15.1631 8.39022 15.1631 8.37276 15.1631L8.19815 15.2678L9.35065 16.595L9.54274 16.4902L8.39022 15.1456Z" fill="#D60032"/>
<path fill-rule="evenodd" clip-rule="evenodd" d="M0.375 6.06519V6.39697L7.16787 14.3074V13.9757L0.375 6.06519ZM8.25052 15.2329L8.04099 15.3552L9.21095 16.6998L9.40304 16.5775L8.25052 15.2329Z" fill="#D50032"/>
<path fill-rule="evenodd" clip-rule="evenodd" d="M0.375 6.3446V6.67639L7.16787 14.5868V14.2551L0.375 6.3446ZM8.09338 15.3203L7.97114 15.3901C7.93622 15.4076 7.90129 15.4076 7.86637 15.4076L9.05379 16.7871L9.24588 16.6649L8.09338 15.3203Z" fill="#D40032"/>
<path fill-rule="evenodd" clip-rule="evenodd" d="M0.375 6.60651V6.93829L7.16787 14.8487V14.5169L0.375 6.60651ZM7.55204 15.3202L8.89663 16.8744L9.08872 16.7521L7.91875 15.4075C7.90129 15.4075 7.86637 15.425 7.8489 15.425H7.83144C7.77905 15.425 7.74413 15.4075 7.7092 15.3901L7.55204 15.3202Z" fill="#D30032"/>
<path fill-rule="evenodd" clip-rule="evenodd" d="M0.375 6.86847V7.21772L8.73947 16.9617L8.93156 16.8395L7.67428 15.3726L7.2901 15.1631C7.22025 15.1282 7.16787 15.0408 7.16787 14.9535V14.7789L0.375 6.86847Z" fill="#D20032"/>
<path fill-rule="evenodd" clip-rule="evenodd" d="M0.375 7.14783V7.47961L8.58231 17.049L8.77439 16.9442L0.375 7.14783Z" fill="#D10032"/>
<path fill-rule="evenodd" clip-rule="evenodd" d="M0.375 7.40979V7.74158L8.42514 17.1363L8.61723 17.0316L0.375 7.40979Z" fill="#D00032"/>
<path fill-rule="evenodd" clip-rule="evenodd" d="M0.375 7.67175V8.021L8.28544 17.2237L8.47753 17.1189L0.375 7.67175Z" fill="#CF0032"/>
<path fill-rule="evenodd" clip-rule="evenodd" d="M0.375 7.95111V8.28288L8.1283 17.3109L8.32037 17.2062L0.375 7.95111Z" fill="#CE0032"/>
<path fill-rule="evenodd" clip-rule="evenodd" d="M0.375 8.21301V8.5448L7.95368 17.3808C8.00607 17.3633 8.05845 17.3459 8.11084 17.3284L8.16323 17.2935L0.375 8.21301Z" fill="#CD0032"/>
<path fill-rule="evenodd" clip-rule="evenodd" d="M0.375 8.47498V8.82423L7.72667 17.3808C7.76159 17.3808 7.79652 17.3808 7.83144 17.3808C7.88383 17.3808 7.93622 17.3808 7.9886 17.3633L0.375 8.47498Z" fill="#CC0032"/>
<path fill-rule="evenodd" clip-rule="evenodd" d="M0.375 8.75439V9.08618L7.32503 17.1887L7.5695 17.3284C7.62189 17.3634 7.7092 17.3808 7.77905 17.3808L0.375 8.75439Z" fill="#CB0032"/>
<path fill-rule="evenodd" clip-rule="evenodd" d="M0.375 9.0163V9.34808L6.871 16.9268L7.44727 17.2586L0.375 9.0163Z" fill="#CA0032"/>
<path fill-rule="evenodd" clip-rule="evenodd" d="M0.375 9.29572V9.6275L6.41698 16.6648L6.99324 16.9966L0.375 9.29572Z" fill="#C90032"/>
<path fill-rule="evenodd" clip-rule="evenodd" d="M0.375 9.55768V9.88947L5.96295 16.4029L6.52175 16.7347L0.375 9.55768Z" fill="#C80033"/>
<path fill-rule="evenodd" clip-rule="evenodd" d="M0.375 9.81958V10.1514L5.50893 16.141L6.06773 16.4727L0.375 9.81958Z" fill="#C70033"/>
<path fill-rule="evenodd" clip-rule="evenodd" d="M0.375 10.099V10.4308L5.03746 15.8616L5.6137 16.1934L0.375 10.099Z" fill="#C60033"/>
<path fill-rule="evenodd" clip-rule="evenodd" d="M0.375 10.3609V10.6927L4.58344 15.5996L5.15968 15.9314L0.375 10.3609Z" fill="#C50033"/>
<path fill-rule="evenodd" clip-rule="evenodd" d="M0.375 10.6229V10.9547L4.12941 15.3377L4.70568 15.6695L0.375 10.6229Z" fill="#C40033"/>
<path fill-rule="evenodd" clip-rule="evenodd" d="M0.375 10.9023V11.2341L3.67539 15.0758L4.25165 15.4076L0.375 10.9023Z" fill="#C30033"/>
<path fill-rule="evenodd" clip-rule="evenodd" d="M0.375 11.1642V11.4959L3.22136 14.8138L3.79763 15.1456L0.375 11.1642Z" fill="#C20033"/>
<path fill-rule="evenodd" clip-rule="evenodd" d="M0.375 11.4261V11.7754L2.76734 14.5519L3.32614 14.8837L0.375 11.4261Z" fill="#C10033"/>
<path fill-rule="evenodd" clip-rule="evenodd" d="M0.375 11.7055V12.0373L2.29586 14.29L2.87211 14.6217L0.375 11.7055Z" fill="#C00033"/>
<path fill-rule="evenodd" clip-rule="evenodd" d="M0.375 11.9675V12.2993L1.84184 14.028L2.4181 14.3424L0.375 11.9675Z" fill="#BF0033"/>
<path fill-rule="evenodd" clip-rule="evenodd" d="M0.375 12.2294V12.5786L1.38782 13.7486L1.96408 14.0804L0.375 12.2294Z" fill="#BE0033"/>
<path fill-rule="evenodd" clip-rule="evenodd" d="M0.375 12.5088V12.8406L0.933795 13.4867L1.51005 13.8185L0.375 12.5088Z" fill="#BD0033"/>
<path fill-rule="evenodd" clip-rule="evenodd" d="M0.375 12.7708V12.8581C0.375 13.0327 0.497237 13.2422 0.636935 13.3296L1.05603 13.5566L0.375 12.7708Z" fill="#BC0033"/>
<path fill-rule="evenodd" clip-rule="evenodd" d="M0.479736 13.1724C0.514661 13.2073 0.532123 13.2422 0.567048 13.2597L0.479736 13.1724Z" fill="#BB0033"/>
</g>
<defs>
<clipPath id="clip0_392_1315">
<rect width="41.25" height="17.325" fill="white" transform="translate(0.375 0.337524)"/>
</clipPath>
</defs>
</svg>
