<svg width="22" height="22" viewBox="0 0 22 22" fill="none" xmlns="http://www.w3.org/2000/svg">
<path d="M14.7431 4.6413C13.61 4.05956 12.3475 3.66661 10.9996 3.66661C8.57618 3.66661 6.42863 4.93681 4.81371 6.2907C3.18314 7.65771 1.97667 9.20983 1.41921 9.9852C0.980706 10.5951 0.980706 11.4048 1.41921 12.0147C1.9052 12.6907 2.88448 13.957 4.20801 15.1764L5.50557 13.8788C4.31678 12.7938 3.4155 11.645 2.9478 10.9999C3.47731 10.2697 4.56253 8.89367 5.99155 7.69563C7.47326 6.45342 9.20826 5.49994 10.9996 5.49994C11.8057 5.49994 12.6004 5.69303 13.3658 6.01862L14.7431 4.6413Z" fill="#6A707C"/>
<path fill-rule="evenodd" clip-rule="evenodd" d="M18.9774 3.03151C19.3356 2.67331 19.9164 2.67331 20.2746 3.03151C20.6328 3.38971 20.6328 3.97048 20.2746 4.32868L17.7852 6.81804C19.1118 8.0391 20.0932 9.30821 20.58 9.9852C21.0185 10.5951 21.0185 11.4048 20.58 12.0147C20.0225 12.7901 18.816 14.3422 17.1855 15.7092C15.5706 17.0631 13.423 18.3333 10.9996 18.3333C9.64869 18.3333 8.38351 17.9386 7.24852 17.3547L5.60195 19.0013C5.24375 19.3595 4.66299 19.3595 4.30479 19.0013C3.94659 18.6431 3.94659 18.0623 4.30479 17.7041C4.30479 17.7041 17.1373 4.87159 18.9774 3.03151ZM16.4876 8.11561L14.5447 10.0585C14.6243 10.359 14.6667 10.6745 14.6667 10.9999C14.6667 13.025 13.025 14.6666 11 14.6666C10.6746 14.6666 10.359 14.6242 10.0586 14.5446L8.62538 15.9779C9.3932 16.3055 10.1907 16.4999 10.9996 16.4999C12.7909 16.4999 14.5259 15.5465 16.0076 14.3043C17.4366 13.1062 18.5219 11.7302 19.0514 10.9999C18.5829 10.3538 17.6794 9.20221 16.4876 8.11561Z" fill="#6A707C"/>
<path d="M11.9317 7.4527C11.6342 7.37478 11.3219 7.33328 11 7.33328C8.97496 7.33328 7.33333 8.9749 7.33333 10.9999C7.33333 11.3219 7.37482 11.6341 7.45275 11.9316L11.9317 7.4527Z" fill="#6A707C"/>
</svg>
