<svg width="37" height="14" viewBox="0 0 37 14" fill="none" xmlns="http://www.w3.org/2000/svg">
<path d="M17.7056 6.83963V10.9435H16.3947V0.808786H19.8716C20.2866 0.800177 20.6993 0.873276 21.0857 1.02386C21.4721 1.17445 21.8247 1.39955 22.1231 1.68616C22.4245 1.95537 22.6643 2.28554 22.8265 2.65445C22.9888 3.02337 23.0696 3.4225 23.0636 3.82502C23.0722 4.22968 22.9926 4.63142 22.8303 5.00269C22.668 5.37396 22.4267 5.70598 22.1231 5.976C21.5151 6.55175 20.7646 6.83936 19.8716 6.83882H17.7056V6.83963ZM17.7056 2.05652V5.59432H19.9042C20.1452 5.60142 20.3851 5.55848 20.6084 5.46825C20.8318 5.37802 21.0337 5.24249 21.2013 5.07032C21.368 4.90935 21.5006 4.71682 21.5911 4.5041C21.6816 4.29139 21.7282 4.06281 21.7282 3.83189C21.7282 3.60097 21.6816 3.37239 21.5911 3.15968C21.5006 2.94696 21.368 2.75443 21.2013 2.59346C21.0358 2.41766 20.8346 2.27881 20.611 2.1861C20.3873 2.0934 20.1464 2.04895 19.9042 2.05571H17.7056V2.05652Z" fill="#5F6368"/>
<path d="M26.0845 3.78296C27.0535 3.78296 27.8184 4.04011 28.3791 4.5544C28.9399 5.0687 29.22 5.77383 29.2195 6.66981V10.9435H27.9655V9.98119H27.9085C27.3656 10.7737 26.6436 11.1699 25.7425 11.1699C24.9733 11.1699 24.3297 10.9435 23.8118 10.4906C23.5633 10.2828 23.3646 10.0225 23.2302 9.72873C23.0958 9.43495 23.0291 9.1151 23.035 8.79249C23.035 8.07496 23.3081 7.50432 23.8542 7.0806C24.4003 6.65687 25.1293 6.44447 26.0413 6.44339C26.8198 6.44339 27.4609 6.5849 27.9647 6.86792V6.57034C27.9661 6.35041 27.9183 6.1329 27.8247 5.93359C27.731 5.73428 27.5939 5.55817 27.4232 5.41803C27.0765 5.10741 26.6247 4.93793 26.1578 4.94336C25.4255 4.94336 24.846 5.2501 24.4193 5.86359L23.2647 5.14148C23.8998 4.2358 24.8397 3.78296 26.0845 3.78296ZM24.3884 8.82079C24.3875 8.98648 24.4265 9.14999 24.5021 9.29768C24.5777 9.44537 24.6878 9.57298 24.8232 9.66987C25.1131 9.89636 25.473 10.0163 25.8418 10.0095C26.3951 10.0086 26.9253 9.7899 27.3165 9.4014C27.7508 8.99546 27.9679 8.51917 27.9679 7.97253C27.5591 7.64907 26.9892 7.48734 26.2579 7.48734C25.7254 7.48734 25.2813 7.61484 24.9258 7.86983C24.5667 8.1286 24.3884 8.44316 24.3884 8.82079Z" fill="#5F6368"/>
<path d="M36.4177 4.00928L32.0402 14H30.6868L32.3113 10.5043L29.4329 4.00928H30.8578L32.9383 8.9905H32.9668L34.9903 4.00928H36.4177Z" fill="#5F6368"/>
<path d="M12.408 5.95509C12.4085 5.55833 12.3747 5.16226 12.307 4.77124H6.77808V7.0136H9.94479C9.87999 7.37174 9.74284 7.71314 9.5416 8.01722C9.34036 8.3213 9.0792 8.58176 8.77387 8.78291V10.2385H10.6638C11.7704 9.22523 12.408 7.72682 12.408 5.95509Z" fill="#4285F4"/>
<path d="M6.77803 11.6447C8.36017 11.6447 9.69233 11.1288 10.6638 10.2393L8.77382 8.7837C8.2478 9.13789 7.57032 9.34005 6.77803 9.34005C5.24882 9.34005 3.95087 8.31631 3.48673 6.93677H1.53979V8.4368C2.02776 9.40108 2.77601 10.2117 3.701 10.7782C4.62599 11.3446 5.69131 11.6446 6.77803 11.6447Z" fill="#34A853"/>
<path d="M3.48674 6.93665C3.24137 6.21376 3.24137 5.43093 3.48674 4.70804V3.20801H1.53981C1.12931 4.0192 0.915527 4.91448 0.915527 5.82234C0.915527 6.73021 1.12931 7.62549 1.53981 8.43668L3.48674 6.93665Z" fill="#FBBC04"/>
<path d="M6.77803 2.30476C7.61412 2.2912 8.42201 2.60491 9.02706 3.1781L10.7004 1.51634C9.63933 0.526625 8.23365 -0.0167458 6.77803 0.000137851C5.69131 0.000187037 4.62599 0.300188 3.701 0.866647C2.77601 1.43311 2.02776 2.24373 1.53979 3.20802L3.48673 4.70805C3.95087 3.3285 5.24882 2.30476 6.77803 2.30476Z" fill="#EA4335"/>
</svg>
