<svg width="71" height="29" viewBox="0 0 71 29" fill="none" xmlns="http://www.w3.org/2000/svg">
<g id="googlePay">
<path id="Vector" d="M33.5758 14.1793V22.387H30.9539V2.11757H37.9078C38.7378 2.10035 39.5631 2.24655 40.336 2.54773C41.1088 2.8489 41.814 3.2991 42.4107 3.87232C43.0135 4.41075 43.4932 5.07107 43.8177 5.80891C44.1421 6.54675 44.3037 7.34501 44.2917 8.15003C44.309 8.95937 44.1498 9.76284 43.8252 10.5054C43.5005 11.2479 43.018 11.912 42.4107 12.452C41.1948 13.6035 39.6938 14.1787 37.9078 14.1776H33.5758V14.1793ZM33.5758 4.61304V11.6886H37.9729C38.455 11.7028 38.9347 11.617 39.3814 11.4365C39.8281 11.256 40.232 10.985 40.5672 10.6406C40.9007 10.3187 41.1657 9.93364 41.3467 9.50821C41.5277 9.08278 41.621 8.62562 41.621 8.16378C41.621 7.70194 41.5277 7.24479 41.3467 6.81936C41.1657 6.39392 40.9007 6.00885 40.5672 5.68691C40.2362 5.33533 39.8338 5.05762 39.3865 4.87221C38.9392 4.68679 38.4574 4.5979 37.9729 4.61142H33.5758V4.61304Z" fill="#5F6368"/>
<path id="Vector_2" d="M50.3337 8.06592C52.2716 8.06592 53.8014 8.58021 54.9229 9.60881C56.0444 10.6374 56.6047 12.0477 56.6036 13.8396V22.3869H54.0956V20.4624H53.9816C52.8959 22.0473 51.4519 22.8398 49.6497 22.8398C48.1112 22.8398 46.8241 22.3869 45.7884 21.4813C45.2913 21.0656 44.8939 20.545 44.6251 19.9575C44.3563 19.3699 44.223 18.7302 44.2347 18.085C44.2347 16.6499 44.7808 15.5086 45.873 14.6612C46.9653 13.8137 48.4234 13.3889 50.2473 13.3868C51.8042 13.3868 53.0864 13.6698 54.094 14.2358V13.6407C54.0969 13.2008 54.0013 12.7658 53.814 12.3672C53.6267 11.9686 53.3524 11.6163 53.011 11.3361C52.3176 10.7148 51.414 10.3759 50.4802 10.3867C49.0156 10.3867 47.8566 11.0002 47.0033 12.2272L44.694 10.783C45.9642 8.9716 47.8441 8.06592 50.3337 8.06592ZM46.9414 18.1416C46.9396 18.473 47.0176 18.8 47.1689 19.0954C47.3202 19.3907 47.5403 19.646 47.811 19.8397C48.3909 20.2927 49.1107 20.5327 49.8483 20.519C50.9548 20.5172 52.0154 20.0798 52.7977 19.3028C53.6662 18.4909 54.1005 17.5383 54.1005 16.4451C53.283 15.7981 52.143 15.4747 50.6805 15.4747C49.6155 15.4747 48.7274 15.7297 48.0162 16.2397C47.298 16.7572 46.9414 17.3863 46.9414 18.1416Z" fill="#5F6368"/>
<path id="Vector_3" d="M71 8.5188L62.2449 28.5003H59.5382L62.7872 21.5088L57.0303 8.5188H59.8802L64.0412 18.4813H64.0982L68.1451 8.5188H71Z" fill="#5F6368"/>
<path id="Vector_4" d="M22.9805 12.4099C22.9815 11.6164 22.9139 10.8243 22.7785 10.0422H11.7207V14.527H18.0541C17.9245 15.2432 17.6502 15.926 17.2477 16.5342C16.8452 17.1423 16.3229 17.6633 15.7123 18.0656V20.9767H19.4921C21.7053 18.9502 22.9805 15.9534 22.9805 12.4099Z" fill="#4285F4"/>
<path id="Vector_5" d="M11.7207 23.7891C14.885 23.7891 17.5493 22.7573 19.4921 20.9783L15.7123 18.0672C14.6602 18.7755 13.3053 19.1799 11.7207 19.1799C8.66227 19.1799 6.06636 17.1324 5.13809 14.3733H1.24422V17.3733C2.22015 19.3019 3.71665 20.9232 5.56662 22.0561C7.4166 23.189 9.54725 23.789 11.7207 23.7891Z" fill="#34A853"/>
<path id="Vector_6" d="M5.13804 14.3733C4.64729 12.9275 4.64729 11.3619 5.13804 9.91607V6.91602H1.24417C0.423178 8.5384 -0.00439453 10.329 -0.00439453 12.1447C-0.00439453 13.9604 0.423178 15.751 1.24417 17.3734L5.13804 14.3733Z" fill="#FBBC04"/>
<path id="Vector_7" d="M11.7207 5.10953C13.3929 5.0824 15.0086 5.70983 16.2188 6.85619L19.5654 3.53268C17.4433 1.55325 14.6319 0.466508 11.7207 0.500276C9.54725 0.500374 7.4166 1.10038 5.56662 2.23329C3.71665 3.36621 2.22015 4.98746 1.24422 6.91603L5.13809 9.91609C6.06636 7.15701 8.66227 5.10953 11.7207 5.10953Z" fill="#EA4335"/>
</g>
</svg>
