<svg width="26" height="26" viewBox="0 0 26 26" fill="none" xmlns="http://www.w3.org/2000/svg">
<path d="M6 14.8751L5.21468 17.9366L2.34436 18C1.48656 16.3385 1 14.4376 1 12.4175C1 10.4641 1.45492 8.622 2.2613 7H2.26192L4.81731 7.48924L5.93672 10.1418C5.70243 10.855 5.57473 11.6207 5.57473 12.4175C5.57482 13.2822 5.72482 14.1107 6 14.8751Z" fill="#FBBB00"/>
<path d="M24.7856 11C24.9265 11.751 25 12.5265 25 13.3191C25 14.2079 24.9076 15.0748 24.7317 15.9111C24.1344 18.7567 22.5737 21.2416 20.4117 23L20.411 22.9993L16.9101 22.8186L16.4146 19.6891C17.8492 18.8379 18.9704 17.5058 19.561 15.9111H13V11H19.6567H24.7856Z" fill="#518EF8"/>
<path d="M19.9993 22.4955L20 22.4961C17.9529 24.0627 15.3525 25 12.5217 25C7.97266 25 4.01759 22.5793 2 19.0169L5.87107 16C6.87985 18.5632 9.47697 20.3879 12.5217 20.3879C13.8304 20.3879 15.0565 20.051 16.1086 19.463L19.9993 22.4955Z" fill="#28B446"/>
<path d="M20 3.85344L16.18 7.14068C15.1051 6.43448 13.8345 6.02653 12.4733 6.02653C9.39968 6.02653 6.78798 8.10633 5.84205 11L2.00064 7.69436H2C3.96251 3.71724 7.91598 1 12.4733 1C15.3345 1 17.9578 2.07125 20 3.85344Z" fill="#F14336"/>
</svg>
