<svg width="28" height="28" viewBox="0 0 28 28" fill="none" xmlns="http://www.w3.org/2000/svg">
<g id="Icon_Twitter">
<path id="Shape" d="M25.1974 9.01595C25.2675 8.95855 25.32 8.8831 25.3491 8.79801C25.3783 8.71293 25.3829 8.62154 25.3625 8.53401C25.3421 8.44649 25.2974 8.36626 25.2335 8.30226C25.1696 8.23827 25.089 8.19301 25.0005 8.17153L24.2229 7.9774C24.1521 7.95995 24.0862 7.92723 24.0299 7.8816C23.9736 7.83597 23.9283 7.77858 23.8972 7.71357C23.8661 7.64856 23.85 7.57756 23.8502 7.50569C23.8503 7.43381 23.8667 7.36287 23.898 7.29798L24.3311 6.43414C24.3721 6.35043 24.3877 6.2569 24.3763 6.16466C24.3649 6.07243 24.3269 5.98536 24.2668 5.9138C24.2066 5.84225 24.1269 5.78923 24.0371 5.76102C23.9473 5.73282 23.8512 5.73063 23.7602 5.75472L21.7914 6.29826C21.718 6.31935 21.6407 6.32332 21.5655 6.30984C21.4903 6.29636 21.4193 6.26581 21.3582 6.22061C20.5062 5.59058 19.47 5.25 18.405 5.25C17.0996 5.25 15.8476 5.7613 14.9246 6.67142C14.0015 7.58154 13.4829 8.81593 13.4829 10.103V10.4525C13.4834 10.5121 13.4615 10.5698 13.4216 10.6145C13.3817 10.6593 13.3264 10.6879 13.2664 10.6951C10.5002 11.0154 7.85212 9.62744 4.99733 6.38561C4.93532 6.31817 4.85564 6.2689 4.76707 6.24322C4.6785 6.21753 4.58445 6.21642 4.49528 6.24002C4.41495 6.27642 4.34605 6.33349 4.29582 6.40523C4.24558 6.47696 4.21587 6.56071 4.20981 6.64767C3.81551 8.24465 3.97493 9.92582 4.66263 11.4231C4.68298 11.4628 4.69186 11.5072 4.68831 11.5516C4.68476 11.5959 4.6689 11.6385 4.64248 11.6745C4.61606 11.7106 4.58009 11.7388 4.53851 11.7561C4.49692 11.7734 4.45132 11.779 4.40669 11.7725L3.30415 11.5589C3.22585 11.5465 3.14567 11.553 3.07043 11.5777C2.99519 11.6024 2.92713 11.6447 2.87203 11.7009C2.81693 11.7571 2.77642 11.8257 2.75396 11.9007C2.7315 11.9756 2.72775 12.0549 2.74303 12.1316C2.82803 12.8765 3.08184 13.593 3.48569 14.2281C3.88954 14.8632 4.43309 15.4006 5.07609 15.8005C5.11769 15.8204 5.15279 15.8514 5.17734 15.89C5.20189 15.9286 5.21491 15.9733 5.21491 16.0189C5.21491 16.0645 5.20189 16.1091 5.17734 16.1477C5.15279 16.1864 5.11769 16.2174 5.07609 16.2373L4.55435 16.4411C4.49099 16.4661 4.4336 16.5039 4.38584 16.552C4.33808 16.6001 4.30098 16.6574 4.27691 16.7204C4.25284 16.7834 4.24232 16.8506 4.24602 16.9178C4.24972 16.9851 4.26756 17.0508 4.2984 17.1108C4.58692 17.7333 5.02426 18.2775 5.57291 18.6967C6.12157 19.116 6.76516 19.3978 7.44851 19.5179C7.49602 19.5349 7.53707 19.5659 7.56608 19.6067C7.59509 19.6475 7.61065 19.6962 7.61065 19.746C7.61065 19.7958 7.59509 19.8445 7.56608 19.8853C7.53707 19.9261 7.49602 19.9571 7.44851 19.9741C6.11007 20.5199 4.67372 20.7939 3.2254 20.7797C3.09485 20.754 2.95929 20.7804 2.84852 20.8532C2.73775 20.926 2.66086 21.0392 2.63475 21.1679C2.60864 21.2967 2.63546 21.4303 2.7093 21.5395C2.78315 21.6487 2.89797 21.7246 3.02851 21.7503C5.53634 22.923 8.26674 23.5613 11.0416 23.6236C13.4824 23.6603 15.8798 22.9849 17.9325 21.6824C19.621 20.5711 21.0043 19.0651 21.9593 17.2988C22.9143 15.5324 23.4112 13.5606 23.4058 11.5589V10.7145C23.4064 10.644 23.4226 10.5745 23.4532 10.5108C23.4838 10.4471 23.5281 10.3908 23.583 10.3457L25.1974 9.01595Z" fill="#999999"/>
</g>
</svg>
