<svg width="28" height="28" viewBox="0 0 28 28" fill="none" xmlns="http://www.w3.org/2000/svg">
<g id="Icon_Instagram">
<g id="Shape">
<path d="M14.4375 17.9812C16.3947 17.9812 17.9812 16.3947 17.9812 14.4375C17.9812 12.4803 16.3947 10.8938 14.4375 10.8938C12.4803 10.8938 10.8938 12.4803 10.8938 14.4375C10.8938 16.3947 12.4803 17.9812 14.4375 17.9812Z" fill="#999999"/>
<path fill-rule="evenodd" clip-rule="evenodd" d="M7.35 2.625C4.74045 2.625 2.625 4.74045 2.625 7.35V21.525C2.625 24.1345 4.74045 26.25 7.35 26.25H21.525C24.1345 26.25 26.25 24.1345 26.25 21.525V7.35C26.25 4.74045 24.1345 2.625 21.525 2.625H7.35ZM14.4375 20.3438C17.6994 20.3438 20.3438 17.6994 20.3438 14.4375C20.3438 11.1756 17.6994 8.53125 14.4375 8.53125C11.1756 8.53125 8.53125 11.1756 8.53125 14.4375C8.53125 17.6994 11.1756 20.3438 14.4375 20.3438ZM21.525 7.35C21.525 8.00239 20.9961 8.53125 20.3438 8.53125C19.6914 8.53125 19.1625 8.00239 19.1625 7.35C19.1625 6.69761 19.6914 6.16875 20.3438 6.16875C20.9961 6.16875 21.525 6.69761 21.525 7.35Z" fill="#999999"/>
</g>
</g>
</svg>
