<svg width="20" height="20" viewBox="0 0 20 20" fill="none" xmlns="http://www.w3.org/2000/svg">
<g id="Icon_Phone">
<path id="Shape" fill-rule="evenodd" clip-rule="evenodd" d="M3.73714 3.57486C3.49867 3.81357 3.28001 4.10639 3.13864 4.36137C2.92082 4.74364 2.79209 5.15533 2.70982 5.58472C2.06169 8.87279 2.88481 11.8142 5.60203 14.5118C7.38486 16.2818 8.73677 17.0092 10.5878 17.2747C11.625 17.4235 12.6796 17.4362 13.7241 17.4957C14.1871 17.5221 14.682 17.4235 15.1246 17.2939C15.622 17.1182 16.0761 16.8332 16.4563 16.4526C17.8479 15.0596 17.8479 12.8012 16.4563 11.4082L16.3324 11.2898C14.9872 10.065 12.9301 10.0538 11.5724 11.2622L10.5511 12.2691C10.3625 12.4578 10.0657 12.4834 9.84772 12.3297C9.39429 12.0099 8.18952 10.8308 7.89543 10.429C7.73555 10.2106 7.75877 9.90803 7.95009 9.71659C8.27393 9.39938 8.60135 9.08545 8.92173 8.76475C10.3534 7.3316 10.3534 5.00801 8.92173 3.57486C7.49004 2.14171 5.16882 2.14171 3.73714 3.57486Z" fill="#1E1F27"/>
</g>
</svg>
