<svg width="20" height="20" viewBox="0 0 20 20" fill="none" xmlns="http://www.w3.org/2000/svg">
<g id="Icon_Mail">
<g id="Shape">
<path d="M2.48183 3.98638C2.92624 3.58076 3.51757 3.33337 4.16667 3.33337H15.8333C16.4824 3.33337 17.0738 3.58076 17.5182 3.98638L10 8.9985L2.48183 3.98638Z" fill="#1E1F27"/>
<path d="M1.69376 5.46408C1.67591 5.58459 1.66667 5.7079 1.66667 5.83337V14.1667C1.66667 15.5474 2.78596 16.6667 4.16667 16.6667H15.8333C17.2141 16.6667 18.3333 15.5474 18.3333 14.1667V5.83337C18.3333 5.7079 18.3241 5.58459 18.3063 5.46408L10.4623 10.6934C10.1823 10.88 9.81767 10.88 9.53776 10.6934L1.69376 5.46408Z" fill="#1E1F27"/>
</g>
</g>
</svg>
