<svg width="20" height="20" viewBox="0 0 20 20" fill="none" xmlns="http://www.w3.org/2000/svg">
<g id="Icon-Address">
<path id="Shape" fill-rule="evenodd" clip-rule="evenodd" d="M10 1.66663C6.77834 1.66663 4.16666 4.2783 4.16666 7.49996C4.16666 10.5435 5.97037 14.6488 9.41074 18.0892C9.73618 18.4147 10.2638 18.4147 10.5893 18.0892C14.0296 14.6488 15.8333 10.5435 15.8333 7.49996C15.8333 4.2783 13.2217 1.66663 10 1.66663ZM10 9.99996C11.3807 9.99996 12.5 8.88067 12.5 7.49996C12.5 6.11925 11.3807 4.99996 10 4.99996C8.61929 4.99996 7.5 6.11925 7.5 7.49996C7.5 8.88067 8.61929 9.99996 10 9.99996Z" fill="#1E1F27"/>
</g>
</svg>
