<svg width="28" height="28" viewBox="0 0 28 28" fill="none" xmlns="http://www.w3.org/2000/svg">
<g id="Icon_WhatsApp">
<path id="Shape" d="M22.823 6.02109C20.5952 3.80625 17.7735 2.625 14.5062 2.625C8.12003 2.625 2.77351 7.94062 2.77351 14.2898C2.77351 16.357 3.36757 18.4242 4.40717 20.1961L2.625 26.25L8.8626 24.6258C10.6448 25.5117 12.5755 26.1023 14.5062 26.1023C21.0408 26.1023 26.2388 20.7867 26.2388 14.4375C26.3873 11.1891 25.0507 8.23594 22.823 6.02109ZM20.2982 18.5719C20.0012 19.3102 18.8131 19.9008 18.3675 19.9008C17.922 20.0484 16.4368 19.9008 14.8032 19.1625C11.8329 17.8336 9.9022 14.8805 9.75369 14.7328C9.60518 14.5852 8.56558 13.1086 8.56558 11.7797C8.56558 10.4508 9.30815 9.56484 9.60518 9.26953C10.1992 8.67891 11.3873 8.82656 11.6844 9.41719C11.8329 10.0078 12.4269 11.4844 12.5755 11.632C12.724 11.7797 12.724 12.3703 12.2784 12.6656C12.1299 12.6656 11.3873 13.2563 11.6844 13.6992C11.8329 13.9945 12.4269 14.8805 13.318 15.7664C14.5062 16.8 15.3972 17.0953 15.6943 17.243C15.9913 17.3906 16.1398 17.3906 16.2883 17.0953C16.4368 16.9477 17.0309 16.2094 17.1794 15.9141C17.3279 15.6187 17.625 15.6187 17.7735 15.7664C17.922 15.9141 19.5556 16.5047 19.8527 16.6523C20.1497 16.9477 20.4467 16.9477 20.4467 17.0953C20.5952 17.243 20.5952 17.8336 20.2982 18.5719Z" fill="#999999"/>
</g>
</svg>
