<svg width="60" height="14" viewBox="0 0 60 14" fill="none" xmlns="http://www.w3.org/2000/svg">
<path d="M26.7659 4.23087H22.19C22.1352 4.55669 20.8219 12.4458 20.7671 12.7727H23.2744C23.3264 12.4695 23.7234 10.0839 23.7234 10.0839H25.5595C27.7473 10.0839 29.1845 8.99387 29.5002 7.09401C29.6665 6.10297 29.3064 4.23087 26.7659 4.23087ZM25.2756 8.31283H24.0176L24.3764 6.16044H25.8009C26.3622 6.16044 27.3023 6.16044 27.1303 7.19385C26.9433 8.31283 25.8982 8.31283 25.2756 8.31283Z" fill="#23396A"/>
<path d="M31.8014 4.23087C31.6889 4.43591 27.3692 12.3251 27.1257 12.7727H29.614C29.7093 12.5802 30.237 11.5022 30.237 11.5022H33.3938C33.3938 11.5022 33.5416 12.5754 33.5699 12.7727H36.1456C36.0537 12.3267 34.3959 4.43591 34.3516 4.23087H31.8014ZM31.0027 9.9445L32.46 6.97387L32.7273 6.48577L33.1913 9.9445H31.0027Z" fill="#23396A"/>
<path d="M41.2979 7.4993C40.2664 7.24938 39.4509 7.05169 39.5084 6.40923C39.5883 5.92708 40.078 5.63811 40.8153 5.63811C41.0262 5.63811 41.4214 5.67107 41.6937 5.88653C41.9292 6.05711 42.0223 6.29392 41.9916 6.57174H44.3315C44.5053 4.36087 42.3995 4.01885 41.098 4.01885C39.4614 4.01885 37.4303 4.74288 37.0911 6.78255C36.8248 8.37763 38.2046 8.77006 39.5389 9.14946L39.6864 9.19056C41.1878 9.62451 41.6929 9.77176 41.5919 10.3809C41.4705 11.1069 40.7394 11.3637 40.0933 11.3637C39.2894 11.3637 38.8281 11.1101 38.7166 10.6102C38.686 10.4677 38.683 10.3035 38.6961 10.1323H36.187C35.8936 12.8372 38.9491 12.9837 39.5788 12.9837C40.5377 12.9837 43.7008 12.7769 44.148 10.0954C44.4017 8.56638 43.2465 8.02611 42.081 7.69849L41.2979 7.4993Z" fill="#23396A"/>
<path d="M46.0239 12.7727H48.5304C48.5863 12.4432 49.6324 6.16044 49.6324 6.16044H52.2091C52.253 5.88822 52.4853 4.50056 52.5296 4.23087H44.8696C44.8256 4.50056 44.5936 5.88822 44.55 6.16044H47.1253C47.1253 6.16044 46.0788 12.4432 46.0239 12.7727Z" fill="#23396A"/>
<path d="M57.1336 7.69874L56.3483 7.4993C55.3188 7.24938 54.5045 7.05153 54.5593 6.40907C54.6395 5.92708 55.1279 5.63795 55.8675 5.63795C56.0774 5.63795 56.4715 5.67115 56.7471 5.88661C56.9812 6.05695 57.0763 6.29368 57.0423 6.57174H59.3835C59.5569 4.36095 57.4515 4.01877 56.1496 4.01877C54.5138 4.01877 52.4822 4.74272 52.1421 6.78255C51.8776 8.37747 53.2566 8.7699 54.5883 9.14946L54.736 9.1908C56.2384 9.62452 56.7441 9.77201 56.6435 10.3809C56.5217 11.1069 55.7908 11.3637 55.1451 11.3637C54.341 11.3637 53.8793 11.1099 53.7686 10.6102C53.7364 10.4676 53.734 10.3029 53.7481 10.1322H51.2392C50.9462 12.8372 54.0011 12.9839 54.631 12.9839C55.5897 12.9839 58.7528 12.7767 59.199 10.0954C59.4549 8.56652 58.2981 8.02628 57.1336 7.69874Z" fill="#23396A"/>
<path d="M3.56944 2.24801C2.0418 4.647 2.29686 10.2065 2.6071 10.5644C3.47711 11.5688 12.9215 12.3375 16.3784 11.1692C17.0974 10.8554 18.9007 4.37644 18.1103 3.89856C17.6967 3.64736 12.4455 6.74067 10.5709 6.89126C8.92619 7.02436 7.08988 4.65491 4.59233 4.07537C4.22993 3.99119 4.0859 3.67399 4.22993 3.45799C4.37647 3.244 4.86882 3.08838 5.29745 3.27349C7.19937 4.0922 8.69104 5.77146 9.73851 5.75044C11.8257 5.70949 16.0741 3.76276 18.3859 3.15809C18.5369 3.11968 18.7825 3.05052 18.8088 3.18569C19.6038 7.31001 17.654 11.6602 17.3964 11.8765C17.2269 12.018 16.1965 12.6622 9.28054 12.7019C7.67424 12.7128 3.18577 12.3225 1.76586 11.699C1.43689 11.5552 1.25502 10.0407 1.5587 7.35997C1.81147 5.1177 2.81309 1.67559 3.25888 1.59141C8.30644 0.657741 20.4889 1.10028 20.4043 1.03391C18.9148 -0.133032 2.56791 -0.0332747 2.16337 0.87223C-0.00965516 5.74498 -0.333795 12.5269 0.266752 12.7954C3.66437 14.3093 17.742 14.1094 18.6184 12.4795C19.1399 11.5065 20.5067 5.36598 20.4183 2.32729C12.5529 1.13447 3.84553 1.81272 3.56944 2.24801Z" fill="#F7961C"/>
<path d="M23.1827 1.04099L22.8106 3.25872H24.0398L23.9743 3.65283H22.3188L22.7585 1.04099H23.1827Z" fill="#F7961C"/>
<path d="M28.7481 1.04099L29.2411 3.65283H28.7874L28.6765 2.96184H27.7091L27.3653 3.65283H26.9282L28.2989 1.04099H28.7481ZM28.6229 2.61461L28.4491 1.49095H28.4396L27.8827 2.61461H28.6229Z" fill="#F7961C"/>
<path d="M34.8638 1.04099L34.7976 1.43515H34.0273L33.6546 3.65283H33.2313L33.6044 1.43515H32.8379L32.9041 1.04099H34.8638Z" fill="#F7961C"/>
<path d="M38.5352 1.04099L38.7928 3.10878H38.7997L39.7689 1.04099H40.1987L38.9314 3.65283H38.4606L38.0935 1.04099H38.5352Z" fill="#F7961C"/>
<path d="M44.0873 1.04099L43.6468 3.65283H43.2227L43.6624 1.04099H44.0873Z" fill="#F7961C"/>
<path d="M47.8868 3.71564C47.3751 3.71564 47.2235 3.35441 47.3053 2.87693L47.3271 2.73947H47.7508L47.7292 2.87383C47.6794 3.17009 47.7255 3.34358 47.9829 3.34358C48.2577 3.34358 48.3514 3.16204 48.4069 2.83676L48.7094 1.04097H49.1335L48.8342 2.81133C48.7591 3.26566 48.5807 3.71564 47.8868 3.71564Z" fill="#F7961C"/>
<path d="M53.9702 1.04099L54.4643 3.65283H54.0089L53.8982 2.96184H52.9304L52.5874 3.65283H52.1499L53.519 1.04099H53.9702ZM53.8438 2.61461L53.6714 1.49095H53.6608L53.1052 2.61461H53.8438Z" fill="#F7961C"/>
<path d="M58.8604 3.34344C59.2343 3.34344 59.4055 3.14465 59.4385 2.94769C59.4729 2.74668 59.3851 2.66543 59.294 2.62567C59.136 2.55611 58.9241 2.50876 58.6074 2.40902C58.2143 2.28965 58.1372 2.01863 58.1827 1.74696C58.2705 1.22426 58.7608 0.978464 59.1965 0.978464C59.7029 0.978464 60.0785 1.26796 59.9858 1.81288H59.5625C59.5979 1.47759 59.4095 1.35271 59.118 1.35271C58.9217 1.35271 58.6596 1.42881 58.6161 1.69172C58.5858 1.87557 58.6829 1.97863 58.848 2.02962C58.8832 2.04077 59.3946 2.18992 59.5131 2.23039C59.8138 2.33273 59.9168 2.62567 59.8709 2.89623C59.7721 3.48162 59.2523 3.71558 58.7711 3.71558C58.2179 3.71558 57.8185 3.42984 57.9174 2.78186H58.3416C58.2732 3.18403 58.5218 3.34344 58.8604 3.34344Z" fill="#F7961C"/>
</svg>
