<svg width="85" height="24" viewBox="0 0 85 24" fill="none" xmlns="http://www.w3.org/2000/svg">
<path fill-rule="evenodd" clip-rule="evenodd" d="M6.02758 0C8.51947 0 12.5852 9.92894 11.9294 15.9348C11.8418 16.7375 11.4974 16.5425 10.7208 16.1027C9.82354 15.5947 8.34932 14.7599 6.02758 14.7599C3.73589 14.7599 2.29711 15.6073 1.40789 16.131C0.616518 16.5971 0.260406 16.8069 0.125726 15.9348C-0.792372 9.98985 3.53568 0 6.02758 0ZM6.06112 24C9.19073 24 11.7278 22.2546 11.7278 20.1015C11.7278 17.9485 9.19073 16.203 6.06112 16.203C2.9315 16.203 0.394449 17.9485 0.394449 20.1015C0.394449 22.2546 2.9315 24 6.06112 24Z" fill="url(#paint0_linear_47_209)"/>
<path d="M76.5058 18.0796V7.52466H79.9202C80.9592 7.52466 81.8565 7.7419 82.6121 8.17637C83.3771 8.6014 83.9675 9.21061 84.3831 10.004C84.7986 10.7879 85.0064 11.7183 85.0064 12.795C85.0064 13.8623 84.7986 14.7927 84.3831 15.5861C83.9675 16.3794 83.3771 16.9934 82.6121 17.4278C81.8565 17.8623 80.9592 18.0796 79.9202 18.0796H76.5058ZM77.4267 17.2295H79.9061C80.7467 17.2295 81.474 17.0453 82.0879 16.677C82.7113 16.3086 83.193 15.7938 83.533 15.1327C83.8825 14.4621 84.0572 13.6829 84.0572 12.795C84.0572 11.8977 83.8825 11.1185 83.533 10.4574C83.193 9.79621 82.7113 9.28617 82.0879 8.92726C81.4645 8.5589 80.7372 8.37472 79.9061 8.37472H77.4267V17.2295Z" fill="black"/>
<path d="M70.359 18.2496C69.6318 18.2496 68.9517 18.1173 68.3189 17.8529C67.6861 17.5789 67.1288 17.2011 66.6471 16.7194C66.1749 16.2283 65.8018 15.6522 65.5279 14.991C65.2634 14.3204 65.1312 13.5884 65.1312 12.795C65.1312 11.9922 65.2634 11.2602 65.5279 10.599C65.8018 9.93786 66.1796 9.36644 66.6613 8.88474C67.143 8.39359 67.6955 8.01579 68.3189 7.75132C68.9517 7.48686 69.6318 7.35463 70.359 7.35463C71.0769 7.35463 71.7522 7.48686 72.385 7.75132C73.0178 8.01579 73.5704 8.39359 74.0426 8.88474C74.5243 9.36644 74.9021 9.94259 75.1761 10.6132C75.45 11.2743 75.5869 12.0016 75.5869 12.795C75.5869 13.5884 75.45 14.3204 75.1761 14.991C74.9021 15.6522 74.5243 16.2283 74.0426 16.7194C73.5704 17.2011 73.0178 17.5789 72.385 17.8529C71.7522 18.1173 71.0769 18.2496 70.359 18.2496ZM70.359 17.3712C70.9919 17.3712 71.5727 17.2531 72.1017 17.017C72.6306 16.7808 73.084 16.4503 73.4618 16.0252C73.849 15.6002 74.1465 15.1138 74.3543 14.566C74.5621 14.0087 74.666 13.4184 74.666 12.795C74.666 12.1811 74.5621 11.6002 74.3543 11.0524C74.1465 10.4951 73.849 10.004 73.4618 9.57895C73.084 9.15392 72.6306 8.82334 72.1017 8.58722C71.5822 8.34164 71.0013 8.21886 70.359 8.21886C69.7168 8.21886 69.1312 8.34164 68.6023 8.58722C68.0828 8.82334 67.6294 9.15392 67.2422 9.57895C66.8644 10.004 66.5716 10.4951 66.3638 11.0524C66.156 11.6002 66.0521 12.1811 66.0521 12.795C66.0521 13.4184 66.156 14.0087 66.3638 14.566C66.5716 15.1138 66.8644 15.6002 67.2422 16.0252C67.6294 16.4503 68.0875 16.7808 68.6164 17.017C69.1454 17.2531 69.7262 17.3712 70.359 17.3712ZM73.5184 19.3546L69.8774 13.8576H70.9399L74.581 19.3546H73.5184Z" fill="black"/>
<path d="M61.1844 18.2496C60.5138 18.2496 59.9093 18.122 59.3709 17.867C58.842 17.612 58.3981 17.2767 58.0392 16.8611C57.6897 16.4455 57.4394 15.9969 57.2883 15.5152L58.11 15.2177C58.3745 15.9355 58.7664 16.4833 59.2859 16.8611C59.8149 17.2389 60.443 17.4278 61.1702 17.4278C61.6519 17.4278 62.0722 17.3475 62.4311 17.187C62.7995 17.0264 63.0876 16.7997 63.2954 16.5069C63.5032 16.2141 63.6071 15.8694 63.6071 15.4727C63.6071 14.9249 63.4512 14.4998 63.1395 14.1976C62.8373 13.8954 62.4406 13.6781 61.9494 13.5459L60.0226 12.9792C59.2387 12.7525 58.6578 12.3889 58.28 11.8883C57.9117 11.3782 57.7275 10.8021 57.7275 10.1598C57.7275 9.60256 57.8597 9.11614 58.1242 8.70056C58.3981 8.27553 58.7664 7.94495 59.2293 7.70882C59.6921 7.47269 60.2163 7.35463 60.8019 7.35463C61.4158 7.35463 61.9636 7.47269 62.4453 7.70882C62.9365 7.9355 63.3473 8.23775 63.6779 8.61555C64.0179 8.98391 64.2588 9.39477 64.4004 9.84814L63.5929 10.1457C63.3568 9.49395 62.9931 9.0028 62.502 8.67222C62.0108 8.3322 61.4489 8.16219 60.816 8.16219C60.4004 8.16219 60.0274 8.24247 59.6968 8.40304C59.3662 8.5636 59.1065 8.79028 58.9176 9.08308C58.7287 9.37588 58.6342 9.72063 58.6342 10.1173C58.6342 10.599 58.7712 11.0099 59.0451 11.3499C59.319 11.6899 59.7771 11.9591 60.4193 12.1575L62.1478 12.6675C62.9034 12.8942 63.4843 13.2436 63.8904 13.7159C64.306 14.1787 64.5138 14.7501 64.5138 15.4302C64.5138 15.9875 64.3721 16.4786 64.0888 16.9036C63.8054 17.3192 63.4087 17.6498 62.8987 17.8954C62.3981 18.1315 61.8267 18.2496 61.1844 18.2496Z" fill="black"/>
<path d="M48.8901 18.0795V7.35463H50.7461V11.8883L50.491 11.6191C50.6705 11.1563 50.9633 10.8068 51.3694 10.5707C51.785 10.3251 52.2667 10.2023 52.8145 10.2023C53.3812 10.2023 53.8818 10.3251 54.3163 10.5707C54.7602 10.8163 55.105 11.161 55.3505 11.6049C55.5961 12.0394 55.7189 12.5447 55.7189 13.1209V18.0795H53.8629V13.5601C53.8629 13.22 53.7968 12.9272 53.6646 12.6817C53.5324 12.4361 53.3482 12.2472 53.1121 12.115C52.8854 11.9733 52.6162 11.9024 52.3045 11.9024C52.0023 11.9024 51.7331 11.9733 51.4969 12.115C51.2608 12.2472 51.0766 12.4361 50.9444 12.6817C50.8122 12.9272 50.7461 13.22 50.7461 13.5601V18.0795H48.8901Z" fill="black"/>
<path d="M46.8345 18.1645C45.9656 18.1645 45.2903 17.9284 44.8086 17.4561C44.3363 16.9744 44.1002 16.2991 44.1002 15.4302V12.0299H42.7684V10.3723H42.9101C43.2879 10.3723 43.5807 10.2731 43.7885 10.0748C43.9963 9.87645 44.1002 9.58837 44.1002 9.21057V8.61552H45.9562V10.3723H47.7271V12.0299H45.9562V15.331C45.9562 15.586 45.9987 15.8032 46.0837 15.9827C46.1781 16.1622 46.3198 16.2991 46.5087 16.3936C46.707 16.488 46.9573 16.5352 47.2596 16.5352C47.3257 16.5352 47.4013 16.5305 47.4863 16.5211C47.5807 16.5116 47.6704 16.5022 47.7554 16.4927V18.0795C47.6232 18.0984 47.4721 18.1173 47.3021 18.1362C47.1321 18.1551 46.9762 18.1645 46.8345 18.1645Z" fill="black"/>
<path d="M37.8144 18.0796V10.3724H39.5571V12.0867L39.4154 11.8317C39.5948 11.2555 39.8735 10.8541 40.2513 10.6274C40.6385 10.4007 41.1013 10.2874 41.6397 10.2874H42.0931V11.9308H41.4272C40.8983 11.9308 40.4732 12.0961 40.1521 12.4267C39.831 12.7478 39.6704 13.2012 39.6704 13.7868V18.0796H37.8144Z" fill="black"/>
<path d="M32.9075 18.2496C32.1519 18.2496 31.4624 18.0748 30.8391 17.7254C30.2251 17.3759 29.734 16.8989 29.3656 16.2944C29.0067 15.6899 28.8273 15.0004 28.8273 14.2259C28.8273 13.4514 29.0067 12.762 29.3656 12.1575C29.734 11.553 30.2251 11.076 30.8391 10.7265C31.453 10.3771 32.1425 10.2023 32.9075 10.2023C33.6632 10.2023 34.3479 10.3771 34.9619 10.7265C35.5758 11.076 36.0622 11.553 36.4211 12.1575C36.7895 12.7525 36.9737 13.442 36.9737 14.2259C36.9737 15.0004 36.7895 15.6899 36.4211 16.2944C36.0528 16.8989 35.5616 17.3759 34.9477 17.7254C34.3338 18.0748 33.6537 18.2496 32.9075 18.2496ZM32.9075 16.5494C33.3231 16.5494 33.6868 16.4503 33.9985 16.2519C34.3196 16.0536 34.5699 15.7797 34.7493 15.4302C34.9382 15.0713 35.0327 14.6699 35.0327 14.2259C35.0327 13.7726 34.9382 13.3759 34.7493 13.0359C34.5699 12.6864 34.3196 12.4125 33.9985 12.2141C33.6868 12.0063 33.3231 11.9025 32.9075 11.9025C32.4825 11.9025 32.1094 12.0063 31.7883 12.2141C31.4672 12.4125 31.2122 12.6864 31.0233 13.0359C30.8438 13.3759 30.7541 13.7726 30.7541 14.2259C30.7541 14.6699 30.8438 15.0713 31.0233 15.4302C31.2122 15.7797 31.4672 16.0536 31.7883 16.2519C32.1094 16.4503 32.4825 16.5494 32.9075 16.5494Z" fill="black"/>
<path d="M19.502 18.0796V7.52466H21.0037L26.8125 15.3452L26.0333 15.501V7.52466H27.9601V18.0796H26.4441L20.7204 10.2023L21.4288 10.0465V18.0796H19.502Z" fill="black"/>
<defs>
<linearGradient id="paint0_linear_47_209" x1="6.09978" y1="0" x2="6.09978" y2="23.6345" gradientUnits="userSpaceOnUse">
<stop stop-color="#EC008C"/>
<stop offset="1" stop-color="#80B3FF"/>
</linearGradient>
</defs>
</svg>
