<svg width="33" height="20" viewBox="0 0 33 20" fill="none" xmlns="http://www.w3.org/2000/svg">
<path d="M32.5834 10C32.5834 15.35 28.2334 19.75 22.8334 19.75C17.4834 19.75 13.0834 15.35 13.0834 10C13.0834 4.65 17.4334 0.25 22.7834 0.25C28.2334 0.25 32.5834 4.65 32.5834 10Z" fill="#F9B50B"/>
<path d="M19.5334 10.05C19.5334 9.35 19.4334 8.65 19.3334 8H13.3334C13.3834 7.65 13.4834 7.35 13.5834 6.95H18.9334C18.8334 6.6 18.6834 6.25 18.5334 5.9H13.9834C14.1334 5.55 14.3334 5.25 14.5334 4.85H17.9834C17.7834 4.5 17.5334 4.15 17.2334 3.8H15.3334C15.6334 3.45 15.9334 3.15 16.3334 2.8C14.6334 1.2 12.3334 0.25 9.78337 0.25C4.48337 0.4 0.083374 4.65 0.083374 10C0.083374 15.35 4.43337 19.75 9.83337 19.75C12.3834 19.75 14.6334 18.75 16.3834 17.2C16.7334 16.9 17.0334 16.55 17.3834 16.15H15.3834C15.1334 15.85 14.8834 15.5 14.6834 15.15H18.0834C18.2834 14.85 18.4834 14.5 18.6334 14.1H14.0834C13.9334 13.8 13.7834 13.45 13.6834 13.05H19.0334C19.3334 12.15 19.5334 11.15 19.5334 10.05Z" fill="#C8191C"/>
<path d="M13.2833 12.5L13.4333 11.6C13.3833 11.6 13.2833 11.65 13.1833 11.65C12.8333 11.65 12.7833 11.45 12.8333 11.35L13.1333 9.54995H13.6833L13.8333 8.54995H13.3333L13.4333 7.94995H12.3833C12.3833 7.94995 11.7833 11.35 11.7833 11.75C11.7833 12.35 12.1333 12.65 12.6333 12.65C12.9333 12.65 13.1833 12.55 13.2833 12.5Z" fill="white"/>
<path d="M13.6334 10.8501C13.6334 12.3001 14.6334 12.6501 15.4334 12.6501C16.1834 12.6501 16.5334 12.5001 16.5334 12.5001L16.7334 11.5001C16.7334 11.5001 16.1834 11.7501 15.6334 11.7501C14.4834 11.7501 14.6834 10.9001 14.6834 10.9001H16.7834C16.7834 10.9001 16.9334 10.2501 16.9334 9.95006C16.9334 9.30006 16.5834 8.45006 15.4334 8.45006C14.4334 8.40006 13.6334 9.55006 13.6334 10.8501ZM15.4334 9.35006C15.9834 9.35006 15.8834 10.0001 15.8834 10.0501H14.7334C14.7834 10.0001 14.8834 9.35006 15.4334 9.35006Z" fill="white"/>
<path d="M21.9834 12.5L22.1834 11.35C22.1834 11.35 21.6834 11.6 21.2834 11.6C20.5834 11.6 20.2334 11.05 20.2334 10.4C20.2334 9.14995 20.8334 8.49995 21.5834 8.49995C22.0834 8.49995 22.5334 8.79995 22.5334 8.79995L22.6834 7.69995C22.6834 7.69995 22.0834 7.44995 21.4834 7.44995C20.2834 7.44995 19.1334 8.49995 19.1334 10.45C19.1334 11.75 19.7334 12.6 20.9834 12.6C21.4334 12.65 21.9834 12.5 21.9834 12.5Z" fill="white"/>
<path d="M7.63335 8.3999C6.93335 8.3999 6.38335 8.5999 6.38335 8.5999L6.23335 9.4999C6.23335 9.4999 6.68335 9.2999 7.38335 9.2999C7.73335 9.2999 8.03335 9.3499 8.03335 9.6499C8.03335 9.8499 7.98335 9.8999 7.98335 9.8999H7.53335C6.63335 9.8999 5.68335 10.2499 5.68335 11.4499C5.68335 12.3999 6.28335 12.5999 6.68335 12.5999C7.38335 12.5999 7.73335 12.1499 7.78335 12.1499L7.73335 12.5499H8.58335L8.98335 9.6999C8.98335 8.4499 7.98335 8.3999 7.63335 8.3999ZM7.83335 10.6999C7.83335 10.8499 7.73335 11.6999 7.13335 11.6999C6.83335 11.6999 6.73335 11.4499 6.73335 11.2999C6.73335 11.0499 6.88335 10.6999 7.68335 10.6999C7.78335 10.6999 7.83335 10.6999 7.83335 10.6999Z" fill="white"/>
<path d="M9.9834 12.6001C10.2334 12.6001 11.5334 12.6501 11.5334 11.2501C11.5334 9.9501 10.2834 10.2001 10.2834 9.7001C10.2834 9.4501 10.4834 9.3501 10.8334 9.3501C10.9834 9.3501 11.5334 9.4001 11.5334 9.4001L11.6834 8.4501C11.6834 8.4501 11.3334 8.3501 10.6834 8.3501C9.9334 8.3501 9.1334 8.6501 9.1334 9.7001C9.1334 10.9001 10.4334 10.8001 10.4334 11.2501C10.4334 11.5501 10.0834 11.6001 9.8334 11.6001C9.3834 11.6001 8.8834 11.4501 8.8834 11.4501L8.7334 12.4001C8.8334 12.5001 9.1334 12.6001 9.9834 12.6001Z" fill="white"/>
<path d="M30.5834 7.6001L30.3834 9.0001C30.3834 9.0001 29.9834 8.5001 29.3834 8.5001C28.4334 8.5001 27.6334 9.6501 27.6334 11.0001C27.6334 11.8501 28.0334 12.7001 28.9334 12.7001C29.5334 12.7001 29.9334 12.3001 29.9334 12.3001L29.8834 12.6501H30.9334L31.6834 7.7001L30.5834 7.6001ZM30.0834 10.3001C30.0834 10.8501 29.8334 11.6001 29.2334 11.6001C28.8834 11.6001 28.6834 11.3001 28.6834 10.7501C28.6834 9.9001 29.0334 9.4001 29.5334 9.4001C29.8834 9.4501 30.0834 9.7001 30.0834 10.3001Z" fill="white"/>
<path d="M1.9834 12.5501L2.5834 8.8501L2.6834 12.5501H3.3834L4.7334 8.8501L4.1834 12.5501H5.2834L6.1334 7.6001H4.4334L3.3834 10.6501L3.3334 7.6001H1.8334L0.983398 12.5501H1.9834Z" fill="white"/>
<path d="M17.9834 12.55C18.2834 10.85 18.3334 9.45 19.0834 9.7C19.1834 9.05 19.3334 8.75 19.4334 8.5H19.2334C18.7834 8.5 18.3834 9.1 18.3834 9.1L18.4834 8.55H17.4834L16.8334 12.55H17.9834Z" fill="white"/>
<path d="M24.3833 8.3999C23.6833 8.3999 23.1333 8.5999 23.1333 8.5999L22.9833 9.4999C22.9833 9.4999 23.4333 9.2999 24.1333 9.2999C24.4833 9.2999 24.7833 9.3499 24.7833 9.6499C24.7833 9.8499 24.7333 9.8999 24.7333 9.8999H24.2833C23.3834 9.8999 22.4333 10.2499 22.4333 11.4499C22.4333 12.3999 23.0333 12.5999 23.4333 12.5999C24.1333 12.5999 24.4834 12.1499 24.5333 12.1499L24.4833 12.5499H25.4333L25.8333 9.6999C25.8333 8.4499 24.7333 8.3999 24.3833 8.3999ZM24.6333 10.6999C24.6333 10.8499 24.5333 11.6999 23.9333 11.6999C23.6333 11.6999 23.5333 11.4499 23.5333 11.2999C23.5333 11.0499 23.6833 10.6999 24.4833 10.6999C24.5833 10.6999 24.5833 10.6999 24.6333 10.6999Z" fill="white"/>
<path d="M26.6334 12.55C26.9334 10.85 26.9834 9.45 27.7334 9.7C27.8334 9.05 27.9834 8.75 28.0834 8.5H27.8834C27.4334 8.5 27.0334 9.1 27.0334 9.1L27.1334 8.55H26.1334L25.4834 12.55H26.6334Z" fill="white"/>
</svg>
