<svg width="60" height="18" viewBox="0 0 60 18" fill="none" xmlns="http://www.w3.org/2000/svg">
<path d="M24.9698 8.91672C23.1948 8.91672 21.9038 10.2076 21.9038 11.8752C21.9038 13.5426 23.1948 14.8336 24.9698 14.8336C26.7449 14.8336 28.0359 13.5426 28.0359 11.8752C28.0359 10.2076 26.7449 8.91672 24.9698 8.91672ZM24.9698 13.704C23.9478 13.704 23.1948 12.9509 23.1948 11.8752C23.1948 10.7993 23.9478 10.0463 24.9698 10.0463C25.9919 10.0463 26.7449 10.7993 26.7449 11.8752C26.7449 12.9509 25.9919 13.704 24.9698 13.704ZM2.9459 3.36092C-0.981965 7.28878 -0.981965 13.6571 2.9459 17.5849V14.639C6.87376 18.5669 13.242 18.5669 17.1699 14.639H2.9459V3.36092ZM35.9788 8.91673C34.4726 8.91673 33.9885 10.0463 33.9885 10.0463H33.9348C33.9348 10.0463 33.5582 8.91673 32.1597 8.91673C30.9225 8.91673 30.4384 9.93878 30.4384 9.93878H30.3846L30.3309 9.07802H29.1475V14.6722H30.3846V11.6601C30.3846 10.6918 31.0839 10.0463 31.8369 10.0463C32.5362 10.0463 32.9665 10.4229 32.9665 11.2835V14.6722H34.2037V11.6601C34.2037 10.6918 34.9029 10.0463 35.656 10.0463C36.3553 10.0463 36.7856 10.4229 36.7856 11.2835V14.6722H38.0228V11.2297C38.0228 9.77737 37.216 8.91673 35.9788 8.91673ZM14.224 0.415053V14.639C18.1519 10.7112 18.1519 4.34291 14.224 0.415053ZM1.29796e-05 3.36089H14.224C10.2962 -0.566912 3.92786 -0.566912 1.29796e-05 3.36089ZM51.6869 12.8971H51.6332L49.9657 9.07805H48.6747L51.0953 14.6722H52.2249L54.6454 9.07805H53.3545L51.6869 12.8971ZM57.5794 8.91673C56.1593 8.91673 55.3465 9.62072 55.3465 9.62072V10.7504H55.5078C55.5078 10.7504 56.1809 10.0463 57.418 10.0463C58.2787 10.0463 58.7628 10.4766 58.7628 11.2297V11.7138C58.7628 11.7138 58.1711 11.3373 57.1491 11.3373C55.8043 11.3373 55.0513 12.0903 55.0513 13.1446C55.0513 14.0806 55.8043 14.8336 56.9339 14.8336C58.3325 14.8336 58.709 13.8116 58.709 13.8116H58.7628L58.8166 14.6722H60V11.1758C60 9.77737 59.1393 8.91673 57.5794 8.91673ZM57.2029 13.7577C56.665 13.7577 56.3422 13.4889 56.3422 13.0048C56.3422 12.5206 56.7187 12.1979 57.3643 12.1979C58.3325 12.1979 58.7628 12.5745 58.7628 12.5745C58.7628 12.5745 58.4938 13.7577 57.2029 13.7577ZM47.0823 6.4962C46.6843 6.4962 46.3616 6.76507 46.3616 7.22775C46.3616 7.6796 46.6843 7.94852 47.0823 7.94852C47.4911 7.94852 47.8139 7.6796 47.8139 7.22775C47.8139 6.76507 47.4911 6.4962 47.0823 6.4962ZM46.4691 14.6722H47.7063V9.07799H46.4691V14.6722ZM42.7032 8.91672C41.3585 8.91672 40.8744 9.93877 40.8744 9.93877H40.8206L40.7668 9.07801H39.5834V14.6722H40.8206V11.6601C40.8206 10.7455 41.5737 10.0463 42.4343 10.0463C43.1873 10.0463 43.6714 10.4766 43.6714 11.2835V14.6722H44.9086V11.2297C44.9086 9.77737 44.048 8.91672 42.7032 8.91672Z" fill="#FF6600"/>
</svg>
