<svg width="40" height="10" viewBox="0 0 40 10" fill="none" xmlns="http://www.w3.org/2000/svg">
<path d="M15.3999 4.32495C15.2999 5.07495 14.6999 5.07495 14.1499 5.07495H13.8499L14.0999 3.62495C14.0999 3.52495 14.1999 3.47495 14.2999 3.47495H14.4499C14.8499 3.47495 15.1999 3.47495 15.3999 3.67495C15.3999 3.87495 15.3999 4.07495 15.3999 4.32495ZM15.1499 2.32495H12.9999C12.8499 2.32495 12.7499 2.42495 12.6999 2.57495L11.8499 8.07495C11.8499 8.17495 11.8999 8.27495 12.0499 8.27495H13.0499C13.1999 8.27495 13.2999 8.17495 13.3499 8.02495L13.5999 6.52495C13.5999 6.37495 13.7499 6.27495 13.8999 6.27495H14.5999C15.9999 6.27495 16.7999 5.57495 17.0499 4.22495C17.1499 3.62495 17.0499 3.17495 16.7999 2.82495C16.3999 2.52495 15.8499 2.32495 15.1499 2.32495Z" fill="#263577"/>
<path d="M20.0998 6.32485C19.9998 6.92485 19.5498 7.32485 18.9498 7.32485C18.6498 7.32485 18.3998 7.22485 18.2498 7.02485C18.0998 6.82485 18.0498 6.57485 18.0998 6.32485C18.1998 5.72485 18.6498 5.32485 19.2498 5.32485C19.5498 5.32485 19.7998 5.42485 19.9498 5.62485C20.0498 5.77485 20.1498 6.02485 20.0998 6.32485ZM21.4998 4.32485H20.4998C20.3998 4.32485 20.3498 4.37485 20.2998 4.47485L20.2498 4.77485L20.1998 4.67485C19.9998 4.37485 19.4998 4.22485 18.9998 4.22485C17.8498 4.22485 16.8998 5.07485 16.6998 6.27485C16.5998 6.87485 16.7498 7.42485 17.0998 7.82485C17.3998 8.17485 17.8498 8.32485 18.3998 8.32485C19.2998 8.32485 19.7998 7.72486 19.7998 7.72486L19.7498 8.02485C19.7498 8.12485 19.7998 8.22486 19.9498 8.22486H20.8498C20.9998 8.22486 21.0998 8.12486 21.1498 7.97486L21.6998 4.47485C21.6998 4.42485 21.6498 4.32485 21.4998 4.32485Z" fill="#263577"/>
<path d="M26.9498 4.32495H25.8998C25.7998 4.32495 25.6998 4.37495 25.6498 4.47495L24.2498 6.57495L23.6498 4.57495C23.5998 4.42495 23.4998 4.37495 23.3498 4.37495H22.3498C22.2498 4.37495 22.1498 4.47495 22.1998 4.62495L23.3498 7.92495L22.2998 9.42495C22.1998 9.52495 22.2998 9.72495 22.4498 9.72495H23.4998C23.5998 9.72495 23.6998 9.67495 23.7498 9.57495L27.1498 4.62495C27.1998 4.47495 27.0998 4.32495 26.9498 4.32495Z" fill="#263577"/>
<path d="M30.6001 4.32495C30.5001 5.07495 29.9001 5.07495 29.3501 5.07495H29.05L29.3 3.62495C29.3 3.52495 29.4001 3.47495 29.5001 3.47495H29.6501C30.0501 3.47495 30.4001 3.47495 30.6001 3.67495C30.6501 3.87495 30.6501 4.07495 30.6001 4.32495ZM30.3501 2.32495H28.2001C28.0501 2.32495 27.9501 2.42495 27.9001 2.57495L27.05 8.07495C27.05 8.17495 27.1001 8.27495 27.2501 8.27495H28.3501C28.4501 8.27495 28.55 8.22495 28.55 8.07495L28.8 6.52495C28.8 6.37495 28.9501 6.27495 29.1001 6.27495H29.8C31.2 6.27495 32.0001 5.57495 32.2501 4.22495C32.3501 3.62495 32.2501 3.17495 32.0001 2.82495C31.6501 2.52495 31.1001 2.32495 30.3501 2.32495Z" fill="#2199D6"/>
<path d="M35.3498 6.32485C35.2498 6.92485 34.7998 7.32485 34.1998 7.32485C33.8998 7.32485 33.6498 7.22485 33.4998 7.02485C33.3498 6.82485 33.2998 6.57485 33.3498 6.32485C33.4498 5.72485 33.8998 5.32485 34.4998 5.32485C34.7998 5.32485 35.0498 5.42485 35.1998 5.62485C35.2998 5.77485 35.3998 6.02485 35.3498 6.32485ZM36.7498 4.32485H35.7498C35.6498 4.32485 35.5998 4.37485 35.5498 4.47485L35.4998 4.77485L35.4498 4.67485C35.2498 4.37485 34.7498 4.22485 34.2498 4.22485C33.0998 4.22485 32.1498 5.07485 31.9498 6.27485C31.8498 6.87485 31.9998 7.42485 32.3498 7.82485C32.6498 8.17485 33.0998 8.32485 33.6498 8.32485C34.5498 8.32485 35.0498 7.72486 35.0498 7.72486L34.9998 8.02485C34.9998 8.12485 35.0498 8.22486 35.1998 8.22486H36.0998C36.2498 8.22486 36.3498 8.12486 36.3998 7.97486L36.9498 4.47485C36.9498 4.42485 36.8498 4.32485 36.7498 4.32485Z" fill="#2199D6"/>
<path d="M37.9501 2.47495L37.05 8.07495C37.05 8.17495 37.1001 8.27495 37.2501 8.27495H38.1501C38.3001 8.27495 38.4001 8.17495 38.4501 8.02495L39.3 2.52495C39.3 2.42495 39.2501 2.32495 39.1001 2.32495H38.1001C38.0501 2.32495 38.0001 2.42495 37.9501 2.47495Z" fill="#2199D6"/>
<path d="M2.95 9.32495L3.1 8.27495H2.75H1L2.2 0.62495C2.2 0.62495 2.2 0.574951 2.25 0.574951H2.3H5.25C6.2 0.574951 6.9 0.774952 7.25 1.17495C7.4 1.37495 7.5 1.57495 7.55 1.77495C7.6 2.02495 7.6 2.27495 7.55 2.62495V2.82495L7.7 2.92495C7.85 2.97495 7.95 3.07495 8.05 3.17495C8.2 3.32495 8.3 3.52495 8.3 3.77495C8.35 4.02495 8.35 4.32495 8.25 4.67495C8.15 5.07495 8.05 5.37495 7.9 5.67495C7.75 5.92495 7.55 6.12495 7.35 6.32495C7.15 6.47495 6.85 6.57495 6.6 6.67495C6.3 6.72495 6 6.77495 5.65 6.77495H5.4C5.25 6.77495 5.1 6.82495 4.95 6.92495C4.85 7.02495 4.75 7.17495 4.7 7.32495V7.42495L4.4 9.27495V9.32495V9.37495C4.4 9.37495 4.4 9.37495 4.35 9.37495H2.95V9.32495Z" fill="#263577"/>
<path d="M7.8999 2.625C7.8999 2.675 7.8999 2.725 7.8499 2.775C7.4499 4.775 6.14991 5.425 4.44991 5.425H3.5999C3.3999 5.425 3.19991 5.575 3.19991 5.775L2.7499 8.575L2.6499 9.375C2.6499 9.525 2.7499 9.625 2.8499 9.625H4.3999C4.5999 9.625 4.7499 9.475 4.7499 9.325V9.225L5.0499 7.425V7.325C5.0999 7.125 5.2499 7.025 5.3999 7.025H5.6499C7.1499 7.025 8.2999 6.425 8.5999 4.675C8.7499 3.925 8.6499 3.325 8.2999 2.925C8.1999 2.825 8.0499 2.725 7.8999 2.625Z" fill="#2199D6"/>
<path d="M7.49995 2.47495C7.44995 2.47495 7.39995 2.42495 7.29995 2.42495C7.24995 2.42495 7.14995 2.37495 7.09995 2.37495C6.84995 2.32495 6.59995 2.32495 6.34995 2.32495H4.04995C3.99995 2.32495 3.94995 2.32495 3.89995 2.37495C3.79995 2.42495 3.69995 2.52495 3.69995 2.62495L3.19995 5.72495V5.82495C3.24995 5.62495 3.39995 5.47495 3.59995 5.47495H4.44995C6.14995 5.47495 7.44994 4.77495 7.84995 2.82495C7.84995 2.77495 7.84995 2.72495 7.89995 2.67495C7.79995 2.62495 7.69994 2.57495 7.59995 2.52495C7.54994 2.47495 7.49995 2.47495 7.49995 2.47495Z" fill="#252C5E"/>
<path d="M3.69995 2.6249C3.69995 2.5249 3.79995 2.4249 3.89995 2.3749C3.94995 2.3749 3.99995 2.3249 4.04995 2.3249H6.34995C6.59995 2.3249 6.89995 2.3249 7.09995 2.3749C7.14995 2.3749 7.24995 2.3749 7.29995 2.4249C7.34995 2.4249 7.39995 2.4749 7.49995 2.4749C7.54995 2.4749 7.54994 2.4749 7.59995 2.5249C7.69994 2.5749 7.79995 2.6249 7.89995 2.6749C7.99995 1.9249 7.89995 1.4249 7.49995 0.974901C7.04995 0.474901 6.24995 0.274902 5.24995 0.274902H2.29995C2.09995 0.274902 1.89995 0.424901 1.89995 0.624901L0.699951 8.3249C0.699951 8.4749 0.799951 8.6249 0.949951 8.6249H2.74995L3.19995 5.7249L3.69995 2.6249Z" fill="#263577"/>
</svg>
