<svg width="78" height="19" viewBox="0 0 78 19" fill="none" xmlns="http://www.w3.org/2000/svg">
<g id="paypal">
<g id="XMLID 2">
<g id="XMLID 3">
<g id="XMLID 4">
<path id="XMLID 30" d="M30.0638 8.15015C29.8638 9.65015 28.6638 9.65015 27.5638 9.65015H26.9637L27.4637 6.75014C27.4637 6.55014 27.6637 6.45015 27.8637 6.45015H28.1638C28.9638 6.45015 29.6638 6.45015 30.0638 6.85015C30.0638 7.25015 30.0638 7.65015 30.0638 8.15015ZM29.5638 4.15015H25.2637C24.9637 4.15015 24.7638 4.35015 24.6638 4.65015L22.9637 15.6501C22.9637 15.8501 23.0638 16.0501 23.3638 16.0501H25.3638C25.6638 16.0501 25.8637 15.8501 25.9637 15.5501L26.4637 12.5501C26.4637 12.2501 26.7638 12.0501 27.0638 12.0501H28.4637C31.2637 12.0501 32.8637 10.6501 33.3637 7.95015C33.5637 6.75015 33.3637 5.85015 32.8637 5.15015C32.0637 4.55015 30.9638 4.15015 29.5638 4.15015Z" fill="#263577"/>
<path id="XMLID 27" d="M39.4637 12.15C39.2638 13.35 38.3638 14.15 37.1638 14.15C36.5638 14.15 36.0638 13.95 35.7638 13.55C35.4638 13.15 35.3637 12.65 35.4637 12.15C35.6637 10.95 36.5638 10.15 37.7638 10.15C38.3638 10.15 38.8638 10.35 39.1638 10.75C39.3638 11.05 39.5637 11.55 39.4637 12.15ZM42.2638 8.14995H40.2638C40.0638 8.14995 39.9637 8.24995 39.8637 8.44995L39.7638 9.04995L39.6638 8.84995C39.2638 8.24995 38.2638 7.94995 37.2638 7.94995C34.9638 7.94995 33.0638 9.64995 32.6638 12.05C32.4638 13.25 32.7637 14.35 33.4637 15.15C34.0637 15.85 34.9638 16.15 36.0638 16.15C37.8638 16.15 38.8637 14.95 38.8637 14.95L38.7638 15.55C38.7638 15.75 38.8638 15.95 39.1638 15.95H40.9637C41.2638 15.95 41.4638 15.75 41.5638 15.45L42.6638 8.44995C42.6638 8.34995 42.5638 8.14995 42.2638 8.14995Z" fill="#263577"/>
<path id="XMLID 26" d="M53.1637 8.15015H51.0637C50.8637 8.15015 50.6637 8.25015 50.5637 8.45015L47.7638 12.6501L46.5637 8.65015C46.4637 8.35015 46.2637 8.25014 45.9637 8.25014H43.9637C43.7637 8.25014 43.5637 8.45014 43.6637 8.75014L45.9637 15.3501L43.8637 18.3501C43.6637 18.5501 43.8637 18.9501 44.1637 18.9501H46.2638C46.4638 18.9501 46.6638 18.8501 46.7638 18.6501L53.5637 8.75014C53.6637 8.45014 53.4637 8.15015 53.1637 8.15015Z" fill="#263577"/>
<path id="XMLID 21" d="M60.4637 8.15015C60.2637 9.65015 59.0637 9.65015 57.9637 9.65015H57.3637L57.8637 6.75014C57.8637 6.55014 58.0638 6.45015 58.2638 6.45015H58.5638C59.3638 6.45015 60.0637 6.45015 60.4637 6.85015C60.5637 7.25015 60.5637 7.65015 60.4637 8.15015ZM59.9637 4.15015H55.6638C55.3638 4.15015 55.1638 4.35015 55.0638 4.65015L53.3637 15.6501C53.3637 15.8501 53.4638 16.0501 53.7638 16.0501H55.9637C56.1637 16.0501 56.3637 15.9501 56.3637 15.6501L56.8637 12.5501C56.8637 12.2501 57.1637 12.0501 57.4637 12.0501H58.8637C61.6637 12.0501 63.2638 10.6501 63.7638 7.95015C63.9638 6.75015 63.7638 5.85015 63.2638 5.15015C62.5638 4.55015 61.4637 4.15015 59.9637 4.15015Z" fill="#2199D6"/>
<path id="XMLID 13" d="M69.9637 12.15C69.7638 13.35 68.8638 14.15 67.6638 14.15C67.0638 14.15 66.5638 13.95 66.2638 13.55C65.9638 13.15 65.8637 12.65 65.9637 12.15C66.1637 10.95 67.0638 10.15 68.2638 10.15C68.8638 10.15 69.3638 10.35 69.6638 10.75C69.8638 11.05 70.0637 11.55 69.9637 12.15ZM72.7638 8.14995H70.7638C70.5638 8.14995 70.4637 8.24995 70.3637 8.44995L70.2638 9.04995L70.1638 8.84995C69.7638 8.24995 68.7638 7.94995 67.7638 7.94995C65.4638 7.94995 63.5638 9.64995 63.1638 12.05C62.9638 13.25 63.2637 14.35 63.9637 15.15C64.5637 15.85 65.4638 16.15 66.5638 16.15C68.3638 16.15 69.3637 14.95 69.3637 14.95L69.2638 15.55C69.2638 15.75 69.3638 15.95 69.6638 15.95H71.4637C71.7638 15.95 71.9638 15.75 72.0638 15.45L73.1638 8.44995C73.1638 8.34995 72.9638 8.14995 72.7638 8.14995Z" fill="#2199D6"/>
<path id="XMLID 12" d="M75.1638 4.45015L73.3637 15.6501C73.3637 15.8501 73.4638 16.0501 73.7638 16.0501H75.5638C75.8638 16.0501 76.0638 15.8501 76.1638 15.5501L77.8637 4.55015C77.8637 4.35015 77.7637 4.15015 77.4637 4.15015H75.4637C75.3637 4.15015 75.2638 4.35015 75.1638 4.45015Z" fill="#2199D6"/>
<path id="XMLID 10" d="M5.16376 18.1501L5.46375 16.0501H4.76375H1.26375L3.66376 0.750145C3.66376 0.750145 3.66375 0.650146 3.76375 0.650146H3.86375H9.76375C11.6637 0.650146 13.0637 1.05015 13.7637 1.85015C14.0637 2.25015 14.2638 2.65015 14.3638 3.05015C14.4638 3.55015 14.4638 4.05014 14.3638 4.75014V5.15015L14.6638 5.35015C14.9638 5.45015 15.1638 5.65015 15.3638 5.85015C15.6638 6.15015 15.8638 6.55015 15.8638 7.05015C15.9638 7.55015 15.9637 8.15015 15.7637 8.85015C15.5637 9.65015 15.3638 10.2501 15.0638 10.8501C14.7638 11.3501 14.3637 11.7501 13.9637 12.1501C13.5637 12.4501 12.9637 12.6501 12.4637 12.8501C11.8637 12.9501 11.2638 13.0501 10.5638 13.0501H10.0638C9.76375 13.0501 9.46376 13.1501 9.16376 13.3501C8.96376 13.5501 8.76376 13.8501 8.66376 14.1501V14.3501L8.06375 18.0501V18.1501V18.2501C8.06375 18.2501 8.06375 18.2501 7.96375 18.2501H5.16376V18.1501Z" fill="#263577"/>
<path id="XMLID 8" d="M15.0638 4.75C15.0638 4.85 15.0637 4.95 14.9637 5.05C14.1637 9.05 11.5638 10.35 8.16376 10.35H6.46375C6.06375 10.35 5.66376 10.65 5.66376 11.05L4.76375 16.65L4.56375 18.25C4.56375 18.55 4.76375 18.75 4.96375 18.75H8.06375C8.46375 18.75 8.76375 18.45 8.76375 18.15V17.95L9.36375 14.35V14.15C9.46375 13.75 9.76375 13.55 10.0638 13.55H10.5638C13.5638 13.55 15.8637 12.35 16.4637 8.85C16.7637 7.35 16.5638 6.15 15.8638 5.35C15.6638 5.15 15.3638 4.95 15.0638 4.75Z" fill="#2199D6"/>
<path id="XMLID 6" d="M14.2637 4.45015C14.1637 4.45015 14.0638 4.35015 13.8638 4.35015C13.7638 4.35015 13.5637 4.25014 13.4637 4.25014C12.9637 4.15014 12.4637 4.15015 11.9637 4.15015H7.36375C7.26375 4.15015 7.16375 4.15014 7.06375 4.25014C6.86375 4.35014 6.66376 4.55014 6.66376 4.75014L5.66376 10.9501V11.1501C5.76376 10.7501 6.06375 10.4501 6.46375 10.4501H8.16376C11.5638 10.4501 14.1637 9.05015 14.9637 5.15015C14.9637 5.05015 14.9638 4.95015 15.0638 4.85015C14.8638 4.75015 14.6637 4.65015 14.4637 4.55015C14.3637 4.45015 14.2637 4.45015 14.2637 4.45015Z" fill="#252C5E"/>
<path id="XMLID 5" d="M6.66376 4.75005C6.66376 4.55005 6.86375 4.35005 7.06375 4.25005C7.16375 4.25005 7.26375 4.15005 7.36375 4.15005H11.9637C12.4637 4.15005 13.0637 4.15005 13.4637 4.25005C13.5637 4.25005 13.7638 4.25005 13.8638 4.35005C13.9638 4.35005 14.0637 4.45005 14.2637 4.45005C14.3637 4.45005 14.3637 4.45005 14.4637 4.55005C14.6637 4.65005 14.8638 4.75005 15.0638 4.85005C15.2638 3.35005 15.0637 2.35005 14.2637 1.45005C13.3637 0.450047 11.7637 0.0500488 9.76375 0.0500488H3.86375C3.46375 0.0500488 3.06375 0.350046 3.06375 0.750046L0.663757 16.15C0.663757 16.45 0.863757 16.75 1.16376 16.75H4.76375L5.66376 10.9501L6.66376 4.75005Z" fill="#263577"/>
</g>
</g>
</g>
</g>
</svg>
