<svg width="20" height="20" viewBox="0 0 20 20" fill="none" xmlns="http://www.w3.org/2000/svg">
<g id="discount-svgrepo-com 1">
<path id="Vector" d="M17.9916 8.19168C17.8498 7.97476 17.7324 7.74279 17.6416 7.50001C17.5687 7.24706 17.5212 6.98743 17.5 6.72501C17.4899 6.08757 17.3054 5.46507 16.9666 4.92501C16.5562 4.43177 16.0166 4.06245 15.4083 3.85834C15.1627 3.76458 14.928 3.64443 14.7083 3.50001C14.5095 3.33558 14.328 3.15129 14.1666 2.95001C13.7788 2.43173 13.2574 2.0285 12.6583 1.78334C12.0556 1.64057 11.4257 1.6607 10.8333 1.84168C10.3017 1.96662 9.74828 1.96662 9.21664 1.84168C8.60607 1.65001 7.95457 1.62983 7.3333 1.78334C6.73721 2.02979 6.2189 2.43292 5.8333 2.95001C5.66931 3.15171 5.48501 3.33602 5.2833 3.50001C5.06362 3.64443 4.82891 3.76458 4.5833 3.85834C3.97194 4.06107 3.42934 4.4305 3.01664 4.92501C2.68373 5.46677 2.50508 6.08916 2.49997 6.72501C2.47875 6.98743 2.43129 7.24706 2.3583 7.50001C2.26644 7.73703 2.14908 7.96335 2.0083 8.17501C1.63115 8.71301 1.40917 9.34435 1.36664 10C1.41216 10.6499 1.634 11.2751 2.0083 11.8083C2.14908 12.02 2.26644 12.2463 2.3583 12.4833C2.42676 12.7423 2.46864 13.0076 2.4833 13.275C2.49342 13.9124 2.67787 14.5349 3.01664 15.075C3.42707 15.5682 3.96663 15.9376 4.57497 16.1417C4.82058 16.2354 5.05529 16.3556 5.27497 16.5C5.47667 16.664 5.66098 16.8483 5.82497 17.05C6.21285 17.5683 6.73417 17.9715 7.3333 18.2167C7.56809 18.2893 7.81254 18.3258 8.0583 18.325C8.44122 18.3131 8.82149 18.2571 9.19164 18.1583C9.72328 18.0334 10.2767 18.0334 10.8083 18.1583C11.4111 18.3454 12.0533 18.3655 12.6666 18.2167C13.2627 17.9702 13.781 17.5671 14.1666 17.05C14.3306 16.8483 14.5149 16.664 14.7166 16.5C14.9363 16.3556 15.171 16.2354 15.4166 16.1417C16.025 15.9376 16.5645 15.5682 16.975 15.075C17.3108 14.5341 17.4924 13.9117 17.5 13.275C17.5146 13.0076 17.5565 12.7423 17.625 12.4833C17.7168 12.2463 17.8342 12.02 17.975 11.8083C18.3552 11.2769 18.5829 10.6515 18.6333 10C18.5878 9.35011 18.3659 8.72492 17.9916 8.19168ZM7.91664 6.66668C8.16386 6.66668 8.40554 6.73999 8.6111 6.87734C8.81666 7.01469 8.97688 7.20991 9.07149 7.43832C9.1661 7.66673 9.19085 7.91806 9.14262 8.16054C9.09439 8.40302 8.97534 8.62575 8.80052 8.80056C8.62571 8.97538 8.40298 9.09443 8.1605 9.14266C7.91802 9.19089 7.66669 9.16614 7.43828 9.07153C7.20988 8.97692 7.01465 8.8167 6.8773 8.61114C6.73995 8.40558 6.66664 8.1639 6.66664 7.91668C6.66664 7.58516 6.79833 7.26721 7.03275 7.03279C7.26717 6.79837 7.58512 6.66668 7.91664 6.66668ZM12.0833 13.3333C11.8361 13.3333 11.5944 13.26 11.3888 13.1227C11.1833 12.9853 11.0231 12.7901 10.9285 12.5617C10.8338 12.3333 10.8091 12.082 10.8573 11.8395C10.9056 11.597 11.0246 11.3743 11.1994 11.1995C11.3742 11.0246 11.597 10.9056 11.8394 10.8574C12.0819 10.8091 12.3333 10.8339 12.5617 10.9285C12.7901 11.0231 12.9853 11.1833 13.1226 11.3889C13.26 11.5944 13.3333 11.8361 13.3333 12.0833C13.3333 12.4149 13.2016 12.7328 12.9672 12.9672C12.7328 13.2016 12.4148 13.3333 12.0833 13.3333ZM13.0916 8.09168L8.09164 13.0917C8.01417 13.1698 7.922 13.2318 7.82045 13.2741C7.7189 13.3164 7.60998 13.3382 7.49997 13.3382C7.38996 13.3382 7.28104 13.3164 7.17949 13.2741C7.07794 13.2318 6.98577 13.1698 6.9083 13.0917C6.8302 13.0142 6.7682 12.922 6.72589 12.8205C6.68359 12.7189 6.66181 12.61 6.66181 12.5C6.66181 12.39 6.68359 12.2811 6.72589 12.1795C6.7682 12.078 6.8302 11.9858 6.9083 11.9083L11.9083 6.90834C12.0652 6.75142 12.2781 6.66327 12.5 6.66327C12.7219 6.66327 12.9347 6.75142 13.0916 6.90834C13.2486 7.06526 13.3367 7.27809 13.3367 7.50001C13.3367 7.72193 13.2486 7.93476 13.0916 8.09168Z" fill="#DB3998"/>
</g>
</svg>
