<svg width="69" height="21" viewBox="0 0 69 21" fill="none" xmlns="http://www.w3.org/2000/svg">
<g id="visa">
<path id="Vector" d="M63.9319 0.300049H59.6319C58.3319 0.300049 57.3319 0.700049 56.7319 2.00005L48.5319 20.7H54.3319C54.3319 20.7 55.3319 18.2001 55.5319 17.6C56.1319 17.6 61.8319 17.6 62.6319 17.6C62.8319 18.3001 63.3319 20.6 63.3319 20.6H68.5319L63.9319 0.300049ZM57.1319 13.4C57.6319 12.2 59.3319 7.70005 59.3319 7.70005C59.3319 7.80005 59.8319 6.50005 60.0319 5.80005L60.4319 7.60005C60.4319 7.60005 61.5319 12.5 61.7319 13.5H57.1319V13.4Z" fill="#3362AB"/>
<path id="Vector_2" d="M48.9319 14C48.9319 18.2 45.1319 21 39.2319 21C36.7319 21 34.3319 20.5 33.0319 19.9L33.8319 15.3L34.5319 15.6C36.3319 16.4 37.5319 16.7 39.7319 16.7C41.3319 16.7 43.0319 16.1 43.0319 14.7C43.0319 13.8 42.3319 13.2 40.1319 12.2C38.0319 11.2 35.2319 9.6 35.2319 6.7C35.2319 2.7 39.1319 0 44.6319 0C46.7319 0 48.5319 0.4 49.6319 0.9L48.8319 5.3L48.4319 4.9C47.4319 4.5 46.1319 4.1 44.2319 4.1C42.1319 4.2 41.1319 5.1 41.1319 5.9C41.1319 6.8 42.3319 7.5 44.2319 8.4C47.4319 9.9 48.9319 11.6 48.9319 14Z" fill="#3362AB"/>
<path id="Vector_3" d="M0.131882 0.500098L0.231882 0.100098H8.83188C10.0319 0.100098 10.9319 0.500098 11.2319 1.8001L13.1319 10.8001C11.2319 6.0001 6.83188 2.1001 0.131882 0.500098Z" fill="#F9B50B"/>
<path id="Vector_4" d="M25.2319 0.299951L16.5319 20.6H10.6319L5.63188 3.59995C9.23188 5.89995 12.2319 9.49995 13.3319 12L13.9319 14.1L19.3319 0.199951H25.2319V0.299951Z" fill="#3362AB"/>
<path id="Vector_5" d="M27.5319 0.199951H33.0319L29.5319 20.6H24.0319L27.5319 0.199951Z" fill="#3362AB"/>
</g>
</svg>
