<svg width="36" height="12" viewBox="0 0 36 12" fill="none" xmlns="http://www.w3.org/2000/svg">
<path d="M32.8 0.899902H30.65C30 0.899902 29.5 1.0999 29.2 1.7499L25.1 11.0999H28C28 11.0999 28.5 9.8499 28.6 9.5499C28.9 9.5499 31.75 9.5499 32.15 9.5499C32.25 9.8999 32.5 11.0499 32.5 11.0499H35.1L32.8 0.899902ZM29.4 7.4499C29.65 6.8499 30.5 4.5999 30.5 4.5999C30.5 4.6499 30.75 3.9999 30.85 3.6499L31.05 4.5499C31.05 4.5499 31.6 6.9999 31.7 7.4999H29.4V7.4499Z" fill="#3362AB"/>
<path d="M25.3 7.75C25.3 9.85 23.4 11.25 20.45 11.25C19.2 11.25 18 11 17.35 10.7L17.75 8.4L18.1 8.55C19 8.95 19.6 9.1 20.7 9.1C21.5 9.1 22.35 8.8 22.35 8.1C22.35 7.65 22 7.35 20.9 6.85C19.85 6.35 18.45 5.55 18.45 4.1C18.45 2.1 20.4 0.75 23.15 0.75C24.2 0.75 25.1 0.95 25.65 1.2L25.25 3.4L25.05 3.2C24.55 3 23.9 2.8 22.95 2.8C21.9 2.85 21.4 3.3 21.4 3.7C21.4 4.15 22 4.5 22.95 4.95C24.55 5.7 25.3 6.55 25.3 7.75Z" fill="#3362AB"/>
<path d="M0.900024 1.00005L0.950024 0.800049H5.25002C5.85002 0.800049 6.30002 1.00005 6.45002 1.65005L7.40002 6.15005C6.45002 3.75005 4.25002 1.80005 0.900024 1.00005Z" fill="#F9B50B"/>
<path d="M13.45 0.900098L9.10002 11.0501H6.15002L3.65002 2.5501C5.45002 3.7001 6.95002 5.5001 7.50002 6.7501L7.80002 7.8001L10.5 0.850098H13.45V0.900098Z" fill="#3362AB"/>
<path d="M14.6 0.850098H17.35L15.6 11.0501H12.85L14.6 0.850098Z" fill="#3362AB"/>
</svg>
